<svg class="main-svg" xmlns="http://www.w3.org/2000/svg" xmlns:xlink="http://www.w3.org/1999/xlink" width="1400" height="600" style="" viewBox="0 0 1400 600"><rect x="0" y="0" width="1400" height="600" style="fill: rgb(255, 255, 255); fill-opacity: 1;"/><defs id="defs-7b3f08"><g class="clips"><clipPath id="clip7b3f08xyplot" class="plotclip"><rect width="325.8" height="420"/></clipPath><clipPath id="clip7b3f08x2y2plot" class="plotclip"><rect width="325.79999999999995" height="420"/></clipPath><clipPath id="clip7b3f08x3y3plot" class="plotclip"><rect width="325.80000000000007" height="420"/></clipPath><clipPath class="axesclip" id="clip7b3f08x"><rect x="82" y="0" width="325.8" height="600"/></clipPath><clipPath class="axesclip" id="clip7b3f08y"><rect x="0" y="100" width="1400" height="420"/></clipPath><clipPath class="axesclip" id="clip7b3f08xy"><rect x="82" y="100" width="325.8" height="420"/></clipPath><clipPath class="axesclip" id="clip7b3f08y2"><rect x="0" y="100" width="1400" height="420"/></clipPath><clipPath class="axesclip" id="clip7b3f08xy2"><rect x="82" y="100" width="325.8" height="420"/></clipPath><clipPath class="axesclip" id="clip7b3f08y3"><rect x="0" y="100" width="1400" height="420"/></clipPath><clipPath class="axesclip" id="clip7b3f08xy3"><rect x="82" y="100" width="325.8" height="420"/></clipPath><clipPath class="axesclip" id="clip7b3f08x2"><rect x="462.09999999999997" y="0" width="325.79999999999995" height="600"/></clipPath><clipPath class="axesclip" id="clip7b3f08x2y"><rect x="462.09999999999997" y="100" width="325.79999999999995" height="420"/></clipPath><clipPath class="axesclip" id="clip7b3f08x2y2"><rect x="462.09999999999997" y="100" width="325.79999999999995" height="420"/></clipPath><clipPath class="axesclip" id="clip7b3f08x2y3"><rect x="462.09999999999997" y="100" width="325.79999999999995" height="420"/></clipPath><clipPath class="axesclip" id="clip7b3f08x3"><rect x="842.1999999999999" y="0" width="325.80000000000007" height="600"/></clipPath><clipPath class="axesclip" id="clip7b3f08x3y"><rect x="842.1999999999999" y="100" width="325.80000000000007" height="420"/></clipPath><clipPath class="axesclip" id="clip7b3f08x3y2"><rect x="842.1999999999999" y="100" width="325.80000000000007" height="420"/></clipPath><clipPath class="axesclip" id="clip7b3f08x3y3"><rect x="842.1999999999999" y="100" width="325.80000000000007" height="420"/></clipPath></g><g class="gradients"/><g class="patterns"/></defs><g class="bglayer"/><g class="layer-below"><g class="imagelayer"/><g class="shapelayer"/></g><g class="cartesianlayer"><g class="subplot xy"><g class="layer-subplot"><g class="shapelayer"/><g class="imagelayer"/></g><g class="minor-gridlayer"><g class="x"/><g class="y"/></g><g class="gridlayer"><g class="x"><path class="xgrid crisp" transform="translate(119.22999999999999,0)" d="M0,100v420" style="stroke: rgb(211, 211, 211); stroke-opacity: 1; stroke-width: 1px;"/><path class="xgrid crisp" transform="translate(203.01,0)" d="M0,100v420" style="stroke: rgb(211, 211, 211); stroke-opacity: 1; stroke-width: 1px;"/><path class="xgrid crisp" transform="translate(286.78999999999996,0)" d="M0,100v420" style="stroke: rgb(211, 211, 211); stroke-opacity: 1; stroke-width: 1px;"/><path class="xgrid crisp" transform="translate(370.57,0)" d="M0,100v420" style="stroke: rgb(211, 211, 211); stroke-opacity: 1; stroke-width: 1px;"/></g><g class="y"><path class="ygrid crisp" transform="translate(0,499.19)" d="M82,0h325.8" style="stroke: rgb(211, 211, 211); stroke-opacity: 1; stroke-width: 1px;"/><path class="ygrid crisp" transform="translate(0,422.71)" d="M82,0h325.8" style="stroke: rgb(211, 211, 211); stroke-opacity: 1; stroke-width: 1px;"/><path class="ygrid crisp" transform="translate(0,346.22)" d="M82,0h325.8" style="stroke: rgb(211, 211, 211); stroke-opacity: 1; stroke-width: 1px;"/><path class="ygrid crisp" transform="translate(0,269.73)" d="M82,0h325.8" style="stroke: rgb(211, 211, 211); stroke-opacity: 1; stroke-width: 1px;"/><path class="ygrid crisp" transform="translate(0,193.25)" d="M82,0h325.8" style="stroke: rgb(211, 211, 211); stroke-opacity: 1; stroke-width: 1px;"/><path class="ygrid crisp" transform="translate(0,116.76)" d="M82,0h325.8" style="stroke: rgb(211, 211, 211); stroke-opacity: 1; stroke-width: 1px;"/></g></g><g class="zerolinelayer"/><g class="layer-between"><g class="shapelayer"/><g class="imagelayer"/></g><path class="xlines-below"/><path class="ylines-below"/><g class="overlines-below"/><g class="xaxislayer-below"/><g class="yaxislayer-below"/><g class="overaxes-below"/><g class="overplot"><g class="xy" transform="translate(82,100)" clip-path="url(#clip7b3f08xyplot)"><g class="violinlayer mlayer"><g class="trace violins" style="opacity: 0.7;"><path class="violin" d="M37.23,26.52L21.09,26.52Q18.96,34.22 18.2,38.1C17.44,41.94 16.84,45.81 16.52,49.68C16.2,53.53 16.15,57.41 16.29,61.27C16.43,65.13 16.86,69 17.36,72.85C17.86,76.72 18.6,80.57 19.31,84.43C20.02,88.3 20.86,92.16 21.61,96.02C22.36,99.88 23.14,103.73 23.81,107.6C24.48,111.45 25.1,115.31 25.64,119.18C26.18,123.04 26.64,126.9 27.05,130.77C27.46,134.63 27.79,138.49 28.11,142.35C28.43,146.21 28.7,150.08 28.97,153.94C29.24,157.8 29.49,161.66 29.74,165.52C29.99,169.38 30.24,173.24 30.48,177.1C30.72,180.96 30.96,184.83 31.19,188.69C31.41,192.55 31.63,196.41 31.83,200.27C32.03,204.13 32.22,207.99 32.37,211.85C32.53,215.71 32.65,219.58 32.76,223.44C32.87,227.3 32.95,231.16 33.01,235.02C33.07,238.88 33.11,242.74 33.14,246.6C33.17,250.46 33.18,254.33 33.2,258.19C33.21,262.05 33.22,265.91 33.23,269.77C33.24,273.63 33.23,277.5 33.24,281.36C33.25,285.22 33.26,289.08 33.27,292.94C33.28,296.8 33.29,300.66 33.3,304.52C33.31,308.38 33.32,312.25 33.34,316.11C33.36,319.97 33.37,323.83 33.4,327.69C33.43,331.55 33.47,335.41 33.52,339.27C33.57,343.13 33.62,347 33.7,350.86C33.78,354.72 33.87,358.58 33.98,362.44C34.09,366.3 34.22,370.16 34.36,374.02C34.5,377.88 34.66,381.75 34.82,385.61Q34.98,389.47 35.32,397.19L37.23,397.19" style="vector-effect: none; stroke-width: 2px; stroke: rgb(255, 0, 0); stroke-opacity: 1; fill: rgb(255, 0, 0); fill-opacity: 1;"/><path class="meanline" d="M26.681421279907227,127.42H37.23" style="fill: none; vector-effect: none; stroke-width: 10px; stroke-dasharray: 20px, 10px; stroke: rgb(0, 0, 0); stroke-opacity: 1;"/><g class="points"><path class="point" transform="translate(37.23,397.19)" d="M3,0A3,3 0 1,1 0,-3A3,3 0 0,1 3,0Z" style="opacity: 1; stroke-width: 0px; fill: rgb(255, 0, 0); fill-opacity: 1;"/><path class="point" transform="translate(37.23,384.74)" d="M3,0A3,3 0 1,1 0,-3A3,3 0 0,1 3,0Z" style="opacity: 1; stroke-width: 0px; fill: rgb(255, 0, 0); fill-opacity: 1;"/><path class="point" transform="translate(37.23,381.61)" d="M3,0A3,3 0 1,1 0,-3A3,3 0 0,1 3,0Z" style="opacity: 1; stroke-width: 0px; fill: rgb(255, 0, 0); fill-opacity: 1;"/><path class="point" transform="translate(37.23,372.5)" d="M3,0A3,3 0 1,1 0,-3A3,3 0 0,1 3,0Z" style="opacity: 1; stroke-width: 0px; fill: rgb(255, 0, 0); fill-opacity: 1;"/><path class="point" transform="translate(37.23,370.01)" d="M3,0A3,3 0 1,1 0,-3A3,3 0 0,1 3,0Z" style="opacity: 1; stroke-width: 0px; fill: rgb(255, 0, 0); fill-opacity: 1;"/><path class="point" transform="translate(37.23,368.19)" d="M3,0A3,3 0 1,1 0,-3A3,3 0 0,1 3,0Z" style="opacity: 1; stroke-width: 0px; fill: rgb(255, 0, 0); fill-opacity: 1;"/><path class="point" transform="translate(37.23,361.11)" d="M3,0A3,3 0 1,1 0,-3A3,3 0 0,1 3,0Z" style="opacity: 1; stroke-width: 0px; fill: rgb(255, 0, 0); fill-opacity: 1;"/></g></g><g class="trace violins" style="opacity: 0.7;"><path class="violin" d="M37.23,398.74L38.4,398.74Q38.57,392.45 38.64,389.3C38.71,386.15 38.77,383.01 38.83,379.86C38.89,376.72 38.94,373.57 38.99,370.43C39.04,367.28 39.07,364.14 39.11,360.99C39.15,357.84 39.18,354.7 39.22,351.55C39.26,348.4 39.3,345.26 39.34,342.11C39.38,338.96 39.43,335.82 39.48,332.67C39.53,329.52 39.59,326.38 39.65,323.23C39.71,320.08 39.78,316.94 39.85,313.79C39.92,310.65 39.99,307.5 40.06,304.36C40.13,301.21 40.19,298.07 40.25,294.92C40.31,291.77 40.37,288.63 40.43,285.48C40.48,282.33 40.53,279.19 40.58,276.04C40.63,272.89 40.69,269.75 40.74,266.6C40.8,263.45 40.85,260.31 40.91,257.16C40.97,254.01 41.03,250.87 41.09,247.72C41.15,244.57 41.2,241.43 41.25,238.28C41.3,235.14 41.35,231.99 41.38,228.85C41.41,225.7 41.44,222.56 41.45,219.41C41.46,216.26 41.47,213.12 41.46,209.97C41.45,206.82 41.43,203.68 41.41,200.53C41.39,197.38 41.37,194.24 41.35,191.09C41.33,187.94 41.3,184.8 41.29,181.65C41.28,178.5 41.27,175.36 41.28,172.21C41.29,169.07 41.29,165.92 41.33,162.78C41.37,159.63 41.42,156.49 41.5,153.34C41.58,150.19 41.68,147.05 41.83,143.9C41.98,140.75 42.15,137.6 42.38,134.46C42.61,131.31 42.88,128.16 43.22,125.02C43.56,121.87 43.95,118.72 44.42,115.58C44.89,112.43 45.43,109.28 46.04,106.14C46.66,102.99 47.36,99.84 48.11,96.7C48.86,93.55 49.71,90.41 50.56,87.27C51.41,84.12 52.35,80.98 53.2,77.83C54.05,74.69 54.95,71.55 55.67,68.39C56.38,65.25 57.07,62.11 57.49,58.95C57.91,55.82 58.19,52.66 58.18,49.51C58.17,46.36 57.91,43.2 57.43,40.07C56.94,36.91 56.15,33.75 55.27,30.63Q54.37,27.46 52.07,21.2L37.23,21.2" style="vector-effect: none; stroke-width: 2px; stroke: rgb(0, 128, 0); stroke-opacity: 1; fill: rgb(0, 128, 0); fill-opacity: 1;"/><path class="meanline" d="M44.36820983886719,115.93H37.23" style="fill: none; vector-effect: none; stroke-width: 10px; stroke-dasharray: 20px, 10px; stroke: rgb(0, 0, 0); stroke-opacity: 1;"/><g class="points"><path class="point" transform="translate(37.23,398.74)" d="M3,0A3,3 0 1,1 0,-3A3,3 0 0,1 3,0Z" style="opacity: 1; stroke-width: 0px; fill: rgb(0, 128, 0); fill-opacity: 1;"/><path class="point" transform="translate(37.23,398.22)" d="M3,0A3,3 0 1,1 0,-3A3,3 0 0,1 3,0Z" style="opacity: 1; stroke-width: 0px; fill: rgb(0, 128, 0); fill-opacity: 1;"/><path class="point" transform="translate(37.23,396.78)" d="M3,0A3,3 0 1,1 0,-3A3,3 0 0,1 3,0Z" style="opacity: 1; stroke-width: 0px; fill: rgb(0, 128, 0); fill-opacity: 1;"/><path class="point" transform="translate(37.23,396.64)" d="M3,0A3,3 0 1,1 0,-3A3,3 0 0,1 3,0Z" style="opacity: 1; stroke-width: 0px; fill: rgb(0, 128, 0); fill-opacity: 1;"/><path class="point" transform="translate(37.23,396.03)" d="M3,0A3,3 0 1,1 0,-3A3,3 0 0,1 3,0Z" style="opacity: 1; stroke-width: 0px; fill: rgb(0, 128, 0); fill-opacity: 1;"/><path class="point" transform="translate(37.23,395.83)" d="M3,0A3,3 0 1,1 0,-3A3,3 0 0,1 3,0Z" style="opacity: 1; stroke-width: 0px; fill: rgb(0, 128, 0); fill-opacity: 1;"/><path class="point" transform="translate(37.23,395.56)" d="M3,0A3,3 0 1,1 0,-3A3,3 0 0,1 3,0Z" style="opacity: 1; stroke-width: 0px; fill: rgb(0, 128, 0); fill-opacity: 1;"/><path class="point" transform="translate(37.23,392.49)" d="M3,0A3,3 0 1,1 0,-3A3,3 0 0,1 3,0Z" style="opacity: 1; stroke-width: 0px; fill: rgb(0, 128, 0); fill-opacity: 1;"/><path class="point" transform="translate(37.23,389.61)" d="M3,0A3,3 0 1,1 0,-3A3,3 0 0,1 3,0Z" style="opacity: 1; stroke-width: 0px; fill: rgb(0, 128, 0); fill-opacity: 1;"/><path class="point" transform="translate(37.23,385.68)" d="M3,0A3,3 0 1,1 0,-3A3,3 0 0,1 3,0Z" style="opacity: 1; stroke-width: 0px; fill: rgb(0, 128, 0); fill-opacity: 1;"/><path class="point" transform="translate(37.23,383.37)" d="M3,0A3,3 0 1,1 0,-3A3,3 0 0,1 3,0Z" style="opacity: 1; stroke-width: 0px; fill: rgb(0, 128, 0); fill-opacity: 1;"/><path class="point" transform="translate(37.23,381.66)" d="M3,0A3,3 0 1,1 0,-3A3,3 0 0,1 3,0Z" style="opacity: 1; stroke-width: 0px; fill: rgb(0, 128, 0); fill-opacity: 1;"/><path class="point" transform="translate(37.23,378.8)" d="M3,0A3,3 0 1,1 0,-3A3,3 0 0,1 3,0Z" style="opacity: 1; stroke-width: 0px; fill: rgb(0, 128, 0); fill-opacity: 1;"/></g></g><g class="trace violins" style="opacity: 0.7;"><path class="violin" d="M121.01,43.15L117.45,43.15Q116.88,50.79 116.64,54.62C116.4,58.44 116.18,62.27 116.02,66.1C115.86,69.93 115.74,73.75 115.67,77.58C115.6,81.41 115.57,85.23 115.57,89.06C115.57,92.89 115.62,96.71 115.66,100.54C115.7,104.37 115.77,108.19 115.8,112.02C115.83,115.85 115.85,119.67 115.83,123.5C115.81,127.33 115.76,131.15 115.65,134.98C115.54,138.81 115.38,142.63 115.19,146.46C115,150.29 114.75,154.11 114.49,157.94C114.23,161.77 113.92,165.59 113.61,169.42C113.3,173.25 112.96,177.07 112.63,180.9C112.3,184.72 111.97,188.55 111.62,192.37C111.27,196.2 110.92,200.02 110.54,203.85C110.16,207.68 109.77,211.5 109.34,215.33C108.91,219.16 108.45,222.99 107.96,226.81C107.46,230.64 106.92,234.46 106.37,238.29C105.82,242.12 105.23,245.94 104.66,249.77C104.09,253.6 103.49,257.42 102.96,261.25C102.43,265.07 101.91,268.9 101.49,272.73C101.08,276.55 100.71,280.38 100.47,284.21C100.23,288.03 100.08,291.86 100.07,295.69C100.06,299.52 100.17,303.35 100.38,307.17C100.59,311 100.94,314.83 101.36,318.65C101.78,322.48 102.32,326.3 102.88,330.12C103.44,333.95 104.08,337.78 104.72,341.6C105.36,345.43 106.05,349.25 106.72,353.08C107.39,356.91 108.07,360.73 108.73,364.56C109.39,368.39 110.05,372.21 110.7,376.04C111.35,379.87 111.99,383.69 112.62,387.52Q113.24,391.35 114.45,399L121.01,399" style="vector-effect: none; stroke-width: 2px; stroke: rgb(255, 0, 0); stroke-opacity: 1; fill: rgb(255, 0, 0); fill-opacity: 1;"/><path class="meanline" d="M103.28089141845703,258.99H121.01" style="fill: none; vector-effect: none; stroke-width: 10px; stroke-dasharray: 20px, 10px; stroke: rgb(0, 0, 0); stroke-opacity: 1;"/><g class="points"/></g><g class="trace violins" style="opacity: 0.7;"><path class="violin" d="M121.01,393.76L121.22,393.76Q121.25,391.06 121.27,389.71C121.28,388.36 121.3,387.01 121.31,385.66C121.32,384.31 121.34,382.96 121.35,381.61C121.37,380.26 121.38,378.91 121.4,377.56C121.42,376.21 121.43,374.86 121.45,373.51C121.47,372.16 121.49,370.81 121.51,369.46C121.53,368.11 121.56,366.76 121.58,365.41C121.6,364.06 121.62,362.71 121.64,361.36C121.66,360.01 121.68,358.66 121.7,357.31C121.71,355.96 121.72,354.61 121.73,353.26C121.74,351.91 121.74,350.56 121.74,349.21C121.74,347.86 121.74,346.51 121.74,345.16C121.74,343.81 121.73,342.46 121.73,341.11C121.73,339.76 121.72,338.41 121.72,337.06C121.72,335.71 121.72,334.36 121.72,333.01C121.72,331.66 121.72,330.31 121.72,328.96C121.72,327.61 121.72,326.26 121.72,324.91C121.72,323.56 121.71,322.21 121.7,320.86C121.69,319.51 121.69,318.15 121.68,316.8C121.67,315.45 121.66,314.1 121.65,312.75C121.64,311.4 121.63,310.05 121.63,308.7C121.63,307.35 121.63,306 121.63,304.65C121.63,303.3 121.64,301.95 121.65,300.6C121.66,299.25 121.67,297.9 121.68,296.55C121.69,295.2 121.71,293.85 121.72,292.5C121.73,291.15 121.74,289.8 121.75,288.45C121.76,287.1 121.77,285.75 121.78,284.4C121.79,283.05 121.8,281.7 121.81,280.35C121.82,279 121.83,277.65 121.84,276.3C121.85,274.95 121.86,273.6 121.87,272.25C121.88,270.9 121.89,269.55 121.9,268.2C121.91,266.85 121.92,265.5 121.93,264.15C121.94,262.8 121.94,261.45 121.94,260.1C121.94,258.75 121.93,257.4 121.93,256.05C121.93,254.7 121.92,253.35 121.92,252C121.91,250.65 121.91,249.3 121.9,247.95C121.9,246.6 121.89,245.25 121.89,243.9C121.89,242.55 121.88,241.2 121.88,239.85C121.88,238.5 121.88,237.15 121.88,235.8C121.88,234.45 121.89,233.1 121.9,231.75C121.91,230.4 121.92,229.05 121.93,227.7C121.94,226.35 121.96,224.99 121.98,223.64C121.99,222.29 122.01,220.94 122.02,219.59C122.04,218.24 122.06,216.89 122.07,215.54C122.08,214.19 122.09,212.84 122.09,211.49C122.09,210.14 122.09,208.79 122.09,207.44C122.09,206.09 122.07,204.74 122.06,203.39C122.05,202.04 122.03,200.69 122.02,199.34C122,197.99 121.99,196.64 121.97,195.29C121.96,193.94 121.94,192.59 121.93,191.24C121.92,189.89 121.9,188.54 121.89,187.19C121.88,185.84 121.88,184.49 121.88,183.14C121.88,181.79 121.88,180.44 121.89,179.09C121.9,177.74 121.91,176.39 121.92,175.04C121.93,173.69 121.95,172.34 121.97,170.99C121.99,169.64 122,168.29 122.02,166.94C122.04,165.59 122.06,164.24 122.08,162.89C122.1,161.54 122.12,160.19 122.14,158.84C122.16,157.49 122.18,156.14 122.2,154.79C122.22,153.44 122.24,152.09 122.27,150.74C122.3,149.39 122.33,148.04 122.36,146.69C122.39,145.34 122.42,143.99 122.46,142.64C122.5,141.29 122.55,139.94 122.59,138.59C122.64,137.24 122.68,135.89 122.73,134.54C122.78,133.19 122.83,131.83 122.88,130.48C122.93,129.13 122.99,127.78 123.05,126.43C123.11,125.08 123.17,123.73 123.23,122.38C123.29,121.03 123.36,119.68 123.43,118.33C123.5,116.98 123.58,115.63 123.66,114.28C123.74,112.93 123.83,111.58 123.92,110.23C124.01,108.88 124.11,107.53 124.21,106.18C124.31,104.83 124.42,103.48 124.53,102.13C124.64,100.78 124.75,99.43 124.86,98.08C124.97,96.73 125.08,95.38 125.19,94.03C125.31,92.68 125.42,91.33 125.55,89.98C125.68,88.63 125.81,87.28 125.96,85.93C126.11,84.58 126.27,83.23 126.47,81.88C126.67,80.53 126.89,79.18 127.15,77.83C127.41,76.48 127.71,75.12 128.05,73.78C128.39,72.42 128.78,71.07 129.21,69.73C129.65,68.37 130.13,67.02 130.65,65.68C131.18,64.32 131.76,62.97 132.36,61.63C132.97,60.27 133.62,58.93 134.28,57.58C134.95,56.23 135.65,54.88 136.34,53.53C137.02,52.18 137.74,50.84 138.39,49.48C139.03,48.14 139.68,46.79 140.2,45.43C140.71,44.09 141.21,42.75 141.5,41.38C141.79,40.04 141.98,38.67 141.96,37.32C141.94,35.97 141.73,34.6 141.35,33.27C140.96,31.89 140.32,30.54 139.6,29.22C138.85,27.83 137.87,26.5 136.89,25.17Q135.88,23.8 133.6,21.12L121.01,21.12" style="vector-effect: none; stroke-width: 2px; stroke: rgb(0, 128, 0); stroke-opacity: 1; fill: rgb(0, 128, 0); fill-opacity: 1;"/><path class="meanline" d="M126.42638397216797,82.18H121.01" style="fill: none; vector-effect: none; stroke-width: 10px; stroke-dasharray: 20px, 10px; stroke: rgb(0, 0, 0); stroke-opacity: 1;"/><g class="points"><path class="point" transform="translate(121.01,393.76)" d="M3,0A3,3 0 1,1 0,-3A3,3 0 0,1 3,0Z" style="opacity: 1; stroke-width: 0px; fill: rgb(0, 128, 0); fill-opacity: 1;"/><path class="point" transform="translate(121.01,389.63)" d="M3,0A3,3 0 1,1 0,-3A3,3 0 0,1 3,0Z" style="opacity: 1; stroke-width: 0px; fill: rgb(0, 128, 0); fill-opacity: 1;"/><path class="point" transform="translate(121.01,377.02)" d="M3,0A3,3 0 1,1 0,-3A3,3 0 0,1 3,0Z" style="opacity: 1; stroke-width: 0px; fill: rgb(0, 128, 0); fill-opacity: 1;"/><path class="point" transform="translate(121.01,374.74)" d="M3,0A3,3 0 1,1 0,-3A3,3 0 0,1 3,0Z" style="opacity: 1; stroke-width: 0px; fill: rgb(0, 128, 0); fill-opacity: 1;"/><path class="point" transform="translate(121.01,373.26)" d="M3,0A3,3 0 1,1 0,-3A3,3 0 0,1 3,0Z" style="opacity: 1; stroke-width: 0px; fill: rgb(0, 128, 0); fill-opacity: 1;"/><path class="point" transform="translate(121.01,360.03)" d="M3,0A3,3 0 1,1 0,-3A3,3 0 0,1 3,0Z" style="opacity: 1; stroke-width: 0px; fill: rgb(0, 128, 0); fill-opacity: 1;"/><path class="point" transform="translate(121.01,356.77)" d="M3,0A3,3 0 1,1 0,-3A3,3 0 0,1 3,0Z" style="opacity: 1; stroke-width: 0px; fill: rgb(0, 128, 0); fill-opacity: 1;"/><path class="point" transform="translate(121.01,355.94)" d="M3,0A3,3 0 1,1 0,-3A3,3 0 0,1 3,0Z" style="opacity: 1; stroke-width: 0px; fill: rgb(0, 128, 0); fill-opacity: 1;"/><path class="point" transform="translate(121.01,355.8)" d="M3,0A3,3 0 1,1 0,-3A3,3 0 0,1 3,0Z" style="opacity: 1; stroke-width: 0px; fill: rgb(0, 128, 0); fill-opacity: 1;"/><path class="point" transform="translate(121.01,354.77)" d="M3,0A3,3 0 1,1 0,-3A3,3 0 0,1 3,0Z" style="opacity: 1; stroke-width: 0px; fill: rgb(0, 128, 0); fill-opacity: 1;"/><path class="point" transform="translate(121.01,354.35)" d="M3,0A3,3 0 1,1 0,-3A3,3 0 0,1 3,0Z" style="opacity: 1; stroke-width: 0px; fill: rgb(0, 128, 0); fill-opacity: 1;"/><path class="point" transform="translate(121.01,347.15)" d="M3,0A3,3 0 1,1 0,-3A3,3 0 0,1 3,0Z" style="opacity: 1; stroke-width: 0px; fill: rgb(0, 128, 0); fill-opacity: 1;"/><path class="point" transform="translate(121.01,347.15)" d="M3,0A3,3 0 1,1 0,-3A3,3 0 0,1 3,0Z" style="opacity: 1; stroke-width: 0px; fill: rgb(0, 128, 0); fill-opacity: 1;"/><path class="point" transform="translate(121.01,341.03)" d="M3,0A3,3 0 1,1 0,-3A3,3 0 0,1 3,0Z" style="opacity: 1; stroke-width: 0px; fill: rgb(0, 128, 0); fill-opacity: 1;"/><path class="point" transform="translate(121.01,339.81)" d="M3,0A3,3 0 1,1 0,-3A3,3 0 0,1 3,0Z" style="opacity: 1; stroke-width: 0px; fill: rgb(0, 128, 0); fill-opacity: 1;"/><path class="point" transform="translate(121.01,333.68)" d="M3,0A3,3 0 1,1 0,-3A3,3 0 0,1 3,0Z" style="opacity: 1; stroke-width: 0px; fill: rgb(0, 128, 0); fill-opacity: 1;"/><path class="point" transform="translate(121.01,330.92)" d="M3,0A3,3 0 1,1 0,-3A3,3 0 0,1 3,0Z" style="opacity: 1; stroke-width: 0px; fill: rgb(0, 128, 0); fill-opacity: 1;"/><path class="point" transform="translate(121.01,325.7)" d="M3,0A3,3 0 1,1 0,-3A3,3 0 0,1 3,0Z" style="opacity: 1; stroke-width: 0px; fill: rgb(0, 128, 0); fill-opacity: 1;"/><path class="point" transform="translate(121.01,324.79)" d="M3,0A3,3 0 1,1 0,-3A3,3 0 0,1 3,0Z" style="opacity: 1; stroke-width: 0px; fill: rgb(0, 128, 0); fill-opacity: 1;"/><path class="point" transform="translate(121.01,323.74)" d="M3,0A3,3 0 1,1 0,-3A3,3 0 0,1 3,0Z" style="opacity: 1; stroke-width: 0px; fill: rgb(0, 128, 0); fill-opacity: 1;"/><path class="point" transform="translate(121.01,320.15)" d="M3,0A3,3 0 1,1 0,-3A3,3 0 0,1 3,0Z" style="opacity: 1; stroke-width: 0px; fill: rgb(0, 128, 0); fill-opacity: 1;"/><path class="point" transform="translate(121.01,318.34)" d="M3,0A3,3 0 1,1 0,-3A3,3 0 0,1 3,0Z" style="opacity: 1; stroke-width: 0px; fill: rgb(0, 128, 0); fill-opacity: 1;"/><path class="point" transform="translate(121.01,314.41)" d="M3,0A3,3 0 1,1 0,-3A3,3 0 0,1 3,0Z" style="opacity: 1; stroke-width: 0px; fill: rgb(0, 128, 0); fill-opacity: 1;"/><path class="point" transform="translate(121.01,311.89)" d="M3,0A3,3 0 1,1 0,-3A3,3 0 0,1 3,0Z" style="opacity: 1; stroke-width: 0px; fill: rgb(0, 128, 0); fill-opacity: 1;"/><path class="point" transform="translate(121.01,307.94)" d="M3,0A3,3 0 1,1 0,-3A3,3 0 0,1 3,0Z" style="opacity: 1; stroke-width: 0px; fill: rgb(0, 128, 0); fill-opacity: 1;"/><path class="point" transform="translate(121.01,298.01)" d="M3,0A3,3 0 1,1 0,-3A3,3 0 0,1 3,0Z" style="opacity: 1; stroke-width: 0px; fill: rgb(0, 128, 0); fill-opacity: 1;"/><path class="point" transform="translate(121.01,294.27)" d="M3,0A3,3 0 1,1 0,-3A3,3 0 0,1 3,0Z" style="opacity: 1; stroke-width: 0px; fill: rgb(0, 128, 0); fill-opacity: 1;"/><path class="point" transform="translate(121.01,292.51)" d="M3,0A3,3 0 1,1 0,-3A3,3 0 0,1 3,0Z" style="opacity: 1; stroke-width: 0px; fill: rgb(0, 128, 0); fill-opacity: 1;"/><path class="point" transform="translate(121.01,291.21)" d="M3,0A3,3 0 1,1 0,-3A3,3 0 0,1 3,0Z" style="opacity: 1; stroke-width: 0px; fill: rgb(0, 128, 0); fill-opacity: 1;"/><path class="point" transform="translate(121.01,289.96)" d="M3,0A3,3 0 1,1 0,-3A3,3 0 0,1 3,0Z" style="opacity: 1; stroke-width: 0px; fill: rgb(0, 128, 0); fill-opacity: 1;"/><path class="point" transform="translate(121.01,288.56)" d="M3,0A3,3 0 1,1 0,-3A3,3 0 0,1 3,0Z" style="opacity: 1; stroke-width: 0px; fill: rgb(0, 128, 0); fill-opacity: 1;"/><path class="point" transform="translate(121.01,282.55)" d="M3,0A3,3 0 1,1 0,-3A3,3 0 0,1 3,0Z" style="opacity: 1; stroke-width: 0px; fill: rgb(0, 128, 0); fill-opacity: 1;"/><path class="point" transform="translate(121.01,282.48)" d="M3,0A3,3 0 1,1 0,-3A3,3 0 0,1 3,0Z" style="opacity: 1; stroke-width: 0px; fill: rgb(0, 128, 0); fill-opacity: 1;"/><path class="point" transform="translate(121.01,277.55)" d="M3,0A3,3 0 1,1 0,-3A3,3 0 0,1 3,0Z" style="opacity: 1; stroke-width: 0px; fill: rgb(0, 128, 0); fill-opacity: 1;"/><path class="point" transform="translate(121.01,270.15)" d="M3,0A3,3 0 1,1 0,-3A3,3 0 0,1 3,0Z" style="opacity: 1; stroke-width: 0px; fill: rgb(0, 128, 0); fill-opacity: 1;"/><path class="point" transform="translate(121.01,269.06)" d="M3,0A3,3 0 1,1 0,-3A3,3 0 0,1 3,0Z" style="opacity: 1; stroke-width: 0px; fill: rgb(0, 128, 0); fill-opacity: 1;"/><path class="point" transform="translate(121.01,268.9)" d="M3,0A3,3 0 1,1 0,-3A3,3 0 0,1 3,0Z" style="opacity: 1; stroke-width: 0px; fill: rgb(0, 128, 0); fill-opacity: 1;"/><path class="point" transform="translate(121.01,268.5)" d="M3,0A3,3 0 1,1 0,-3A3,3 0 0,1 3,0Z" style="opacity: 1; stroke-width: 0px; fill: rgb(0, 128, 0); fill-opacity: 1;"/><path class="point" transform="translate(121.01,267.03)" d="M3,0A3,3 0 1,1 0,-3A3,3 0 0,1 3,0Z" style="opacity: 1; stroke-width: 0px; fill: rgb(0, 128, 0); fill-opacity: 1;"/><path class="point" transform="translate(121.01,261.85)" d="M3,0A3,3 0 1,1 0,-3A3,3 0 0,1 3,0Z" style="opacity: 1; stroke-width: 0px; fill: rgb(0, 128, 0); fill-opacity: 1;"/><path class="point" transform="translate(121.01,259.77)" d="M3,0A3,3 0 1,1 0,-3A3,3 0 0,1 3,0Z" style="opacity: 1; stroke-width: 0px; fill: rgb(0, 128, 0); fill-opacity: 1;"/><path class="point" transform="translate(121.01,258.3)" d="M3,0A3,3 0 1,1 0,-3A3,3 0 0,1 3,0Z" style="opacity: 1; stroke-width: 0px; fill: rgb(0, 128, 0); fill-opacity: 1;"/><path class="point" transform="translate(121.01,256.2)" d="M3,0A3,3 0 1,1 0,-3A3,3 0 0,1 3,0Z" style="opacity: 1; stroke-width: 0px; fill: rgb(0, 128, 0); fill-opacity: 1;"/><path class="point" transform="translate(121.01,254.31)" d="M3,0A3,3 0 1,1 0,-3A3,3 0 0,1 3,0Z" style="opacity: 1; stroke-width: 0px; fill: rgb(0, 128, 0); fill-opacity: 1;"/><path class="point" transform="translate(121.01,253.39)" d="M3,0A3,3 0 1,1 0,-3A3,3 0 0,1 3,0Z" style="opacity: 1; stroke-width: 0px; fill: rgb(0, 128, 0); fill-opacity: 1;"/><path class="point" transform="translate(121.01,248.95)" d="M3,0A3,3 0 1,1 0,-3A3,3 0 0,1 3,0Z" style="opacity: 1; stroke-width: 0px; fill: rgb(0, 128, 0); fill-opacity: 1;"/><path class="point" transform="translate(121.01,246.65)" d="M3,0A3,3 0 1,1 0,-3A3,3 0 0,1 3,0Z" style="opacity: 1; stroke-width: 0px; fill: rgb(0, 128, 0); fill-opacity: 1;"/><path class="point" transform="translate(121.01,241.63)" d="M3,0A3,3 0 1,1 0,-3A3,3 0 0,1 3,0Z" style="opacity: 1; stroke-width: 0px; fill: rgb(0, 128, 0); fill-opacity: 1;"/><path class="point" transform="translate(121.01,240.46)" d="M3,0A3,3 0 1,1 0,-3A3,3 0 0,1 3,0Z" style="opacity: 1; stroke-width: 0px; fill: rgb(0, 128, 0); fill-opacity: 1;"/><path class="point" transform="translate(121.01,237.65)" d="M3,0A3,3 0 1,1 0,-3A3,3 0 0,1 3,0Z" style="opacity: 1; stroke-width: 0px; fill: rgb(0, 128, 0); fill-opacity: 1;"/><path class="point" transform="translate(121.01,237.05)" d="M3,0A3,3 0 1,1 0,-3A3,3 0 0,1 3,0Z" style="opacity: 1; stroke-width: 0px; fill: rgb(0, 128, 0); fill-opacity: 1;"/><path class="point" transform="translate(121.01,232.4)" d="M3,0A3,3 0 1,1 0,-3A3,3 0 0,1 3,0Z" style="opacity: 1; stroke-width: 0px; fill: rgb(0, 128, 0); fill-opacity: 1;"/><path class="point" transform="translate(121.01,232.02)" d="M3,0A3,3 0 1,1 0,-3A3,3 0 0,1 3,0Z" style="opacity: 1; stroke-width: 0px; fill: rgb(0, 128, 0); fill-opacity: 1;"/><path class="point" transform="translate(121.01,231.1)" d="M3,0A3,3 0 1,1 0,-3A3,3 0 0,1 3,0Z" style="opacity: 1; stroke-width: 0px; fill: rgb(0, 128, 0); fill-opacity: 1;"/><path class="point" transform="translate(121.01,223.14)" d="M3,0A3,3 0 1,1 0,-3A3,3 0 0,1 3,0Z" style="opacity: 1; stroke-width: 0px; fill: rgb(0, 128, 0); fill-opacity: 1;"/><path class="point" transform="translate(121.01,221.29)" d="M3,0A3,3 0 1,1 0,-3A3,3 0 0,1 3,0Z" style="opacity: 1; stroke-width: 0px; fill: rgb(0, 128, 0); fill-opacity: 1;"/><path class="point" transform="translate(121.01,218.24)" d="M3,0A3,3 0 1,1 0,-3A3,3 0 0,1 3,0Z" style="opacity: 1; stroke-width: 0px; fill: rgb(0, 128, 0); fill-opacity: 1;"/><path class="point" transform="translate(121.01,214.39)" d="M3,0A3,3 0 1,1 0,-3A3,3 0 0,1 3,0Z" style="opacity: 1; stroke-width: 0px; fill: rgb(0, 128, 0); fill-opacity: 1;"/><path class="point" transform="translate(121.01,214.05)" d="M3,0A3,3 0 1,1 0,-3A3,3 0 0,1 3,0Z" style="opacity: 1; stroke-width: 0px; fill: rgb(0, 128, 0); fill-opacity: 1;"/><path class="point" transform="translate(121.01,213.41)" d="M3,0A3,3 0 1,1 0,-3A3,3 0 0,1 3,0Z" style="opacity: 1; stroke-width: 0px; fill: rgb(0, 128, 0); fill-opacity: 1;"/><path class="point" transform="translate(121.01,212.98)" d="M3,0A3,3 0 1,1 0,-3A3,3 0 0,1 3,0Z" style="opacity: 1; stroke-width: 0px; fill: rgb(0, 128, 0); fill-opacity: 1;"/><path class="point" transform="translate(121.01,212.86)" d="M3,0A3,3 0 1,1 0,-3A3,3 0 0,1 3,0Z" style="opacity: 1; stroke-width: 0px; fill: rgb(0, 128, 0); fill-opacity: 1;"/><path class="point" transform="translate(121.01,212.68)" d="M3,0A3,3 0 1,1 0,-3A3,3 0 0,1 3,0Z" style="opacity: 1; stroke-width: 0px; fill: rgb(0, 128, 0); fill-opacity: 1;"/><path class="point" transform="translate(121.01,210.34)" d="M3,0A3,3 0 1,1 0,-3A3,3 0 0,1 3,0Z" style="opacity: 1; stroke-width: 0px; fill: rgb(0, 128, 0); fill-opacity: 1;"/><path class="point" transform="translate(121.01,205.36)" d="M3,0A3,3 0 1,1 0,-3A3,3 0 0,1 3,0Z" style="opacity: 1; stroke-width: 0px; fill: rgb(0, 128, 0); fill-opacity: 1;"/><path class="point" transform="translate(121.01,202.38)" d="M3,0A3,3 0 1,1 0,-3A3,3 0 0,1 3,0Z" style="opacity: 1; stroke-width: 0px; fill: rgb(0, 128, 0); fill-opacity: 1;"/><path class="point" transform="translate(121.01,201.99)" d="M3,0A3,3 0 1,1 0,-3A3,3 0 0,1 3,0Z" style="opacity: 1; stroke-width: 0px; fill: rgb(0, 128, 0); fill-opacity: 1;"/><path class="point" transform="translate(121.01,200.6)" d="M3,0A3,3 0 1,1 0,-3A3,3 0 0,1 3,0Z" style="opacity: 1; stroke-width: 0px; fill: rgb(0, 128, 0); fill-opacity: 1;"/><path class="point" transform="translate(121.01,194.41)" d="M3,0A3,3 0 1,1 0,-3A3,3 0 0,1 3,0Z" style="opacity: 1; stroke-width: 0px; fill: rgb(0, 128, 0); fill-opacity: 1;"/><path class="point" transform="translate(121.01,194.41)" d="M3,0A3,3 0 1,1 0,-3A3,3 0 0,1 3,0Z" style="opacity: 1; stroke-width: 0px; fill: rgb(0, 128, 0); fill-opacity: 1;"/><path class="point" transform="translate(121.01,192.28)" d="M3,0A3,3 0 1,1 0,-3A3,3 0 0,1 3,0Z" style="opacity: 1; stroke-width: 0px; fill: rgb(0, 128, 0); fill-opacity: 1;"/><path class="point" transform="translate(121.01,190.72)" d="M3,0A3,3 0 1,1 0,-3A3,3 0 0,1 3,0Z" style="opacity: 1; stroke-width: 0px; fill: rgb(0, 128, 0); fill-opacity: 1;"/><path class="point" transform="translate(121.01,189.85)" d="M3,0A3,3 0 1,1 0,-3A3,3 0 0,1 3,0Z" style="opacity: 1; stroke-width: 0px; fill: rgb(0, 128, 0); fill-opacity: 1;"/><path class="point" transform="translate(121.01,188.59)" d="M3,0A3,3 0 1,1 0,-3A3,3 0 0,1 3,0Z" style="opacity: 1; stroke-width: 0px; fill: rgb(0, 128, 0); fill-opacity: 1;"/><path class="point" transform="translate(121.01,177.86)" d="M3,0A3,3 0 1,1 0,-3A3,3 0 0,1 3,0Z" style="opacity: 1; stroke-width: 0px; fill: rgb(0, 128, 0); fill-opacity: 1;"/><path class="point" transform="translate(121.01,177.28)" d="M3,0A3,3 0 1,1 0,-3A3,3 0 0,1 3,0Z" style="opacity: 1; stroke-width: 0px; fill: rgb(0, 128, 0); fill-opacity: 1;"/><path class="point" transform="translate(121.01,175.39)" d="M3,0A3,3 0 1,1 0,-3A3,3 0 0,1 3,0Z" style="opacity: 1; stroke-width: 0px; fill: rgb(0, 128, 0); fill-opacity: 1;"/></g></g><g class="trace violins" style="opacity: 0.7;"><path class="violin" d="M204.79,24.91L185.76,24.91Q184.31,35.17 183.99,40.32C183.67,45.45 183.63,50.6 183.84,55.73C184.05,60.87 184.59,66.01 185.23,71.14C185.88,76.29 186.8,81.42 187.71,86.55C188.62,91.69 189.7,96.82 190.7,101.96C191.7,107.1 192.75,112.23 193.69,117.37C194.62,122.5 195.52,127.64 196.31,132.78C197.1,137.91 197.8,143.06 198.42,148.2C199.03,153.33 199.55,158.47 200,163.61C200.45,168.74 200.8,173.88 201.1,179.02C201.4,184.15 201.62,189.29 201.79,194.43C201.96,199.57 202.07,204.7 202.14,209.84C202.21,214.98 202.22,220.11 202.19,225.25C202.16,230.39 202.08,235.52 201.97,240.66C201.86,245.8 201.69,250.93 201.51,256.07C201.33,261.21 201.1,266.35 200.87,271.49C200.64,276.63 200.38,281.76 200.14,286.9C199.9,292.04 199.64,297.17 199.42,302.31C199.2,307.45 198.98,312.58 198.82,317.72C198.66,322.86 198.53,327.99 198.47,333.13C198.41,338.27 198.4,343.4 198.46,348.54C198.52,353.68 198.64,358.81 198.81,363.95C198.99,369.09 199.24,374.22 199.51,379.36Q199.78,384.5 200.44,394.78L204.79,394.78" style="vector-effect: none; stroke-width: 2px; stroke: rgb(255, 0, 0); stroke-opacity: 1; fill: rgb(255, 0, 0); fill-opacity: 1;"/><path class="meanline" d="M195.6431121826172,128.59H204.79" style="fill: none; vector-effect: none; stroke-width: 10px; stroke-dasharray: 20px, 10px; stroke: rgb(0, 0, 0); stroke-opacity: 1;"/><g class="points"/></g><g class="trace violins" style="opacity: 0.7;"><path class="violin" d="M204.79,398.21L205.7,398.21Q205.86,391.76 205.94,388.54C206.02,385.32 206.1,382.09 206.18,378.87C206.26,375.65 206.35,372.42 206.44,369.2C206.53,365.98 206.63,362.75 206.74,359.53C206.85,356.31 206.96,353.08 207.08,349.86C207.2,346.64 207.33,343.42 207.47,340.2C207.61,336.98 207.77,333.75 207.93,330.53C208.09,327.31 208.26,324.08 208.43,320.86C208.6,317.64 208.78,314.41 208.96,311.19C209.14,307.97 209.32,304.74 209.5,301.52C209.68,298.3 209.85,295.07 210.02,291.85C210.18,288.63 210.35,285.41 210.49,282.19C210.63,278.97 210.77,275.74 210.88,272.52C210.99,269.3 211.08,266.07 211.15,262.85C211.22,259.63 211.26,256.4 211.28,253.18C211.3,249.96 211.31,246.73 211.29,243.51C211.27,240.29 211.23,237.06 211.18,233.84C211.13,230.62 211.07,227.4 211.01,224.18C210.95,220.96 210.87,217.73 210.8,214.51C210.73,211.29 210.66,208.06 210.59,204.84C210.52,201.62 210.46,198.39 210.4,195.17C210.34,191.95 210.29,188.72 210.25,185.5C210.21,182.28 210.17,179.05 210.14,175.83C210.11,172.61 210.1,169.39 210.09,166.17C210.08,162.95 210.09,159.72 210.11,156.5C210.13,153.28 210.16,150.05 210.23,146.83C210.3,143.61 210.37,140.38 210.51,137.16C210.65,133.94 210.81,130.71 211.05,127.49C211.29,124.26 211.57,121.04 211.94,117.82C212.31,114.59 212.74,111.37 213.27,108.15C213.8,104.92 214.42,101.7 215.1,98.49C215.78,95.26 216.56,92.04 217.37,88.82C218.18,85.59 219.09,82.37 219.95,79.15C220.8,75.93 221.72,72.71 222.5,69.48C223.27,66.27 224.06,63.05 224.6,59.81C225.13,56.6 225.58,53.37 225.73,50.14C225.88,46.92 225.83,43.69 225.52,40.48C225.21,37.25 224.6,34.01 223.85,30.81Q223.09,27.56 220.96,21.14L204.79,21.14" style="vector-effect: none; stroke-width: 2px; stroke: rgb(0, 128, 0); stroke-opacity: 1; fill: rgb(0, 128, 0); fill-opacity: 1;"/><path class="meanline" d="M211.15213012695312,126.15H204.79" style="fill: none; vector-effect: none; stroke-width: 10px; stroke-dasharray: 20px, 10px; stroke: rgb(0, 0, 0); stroke-opacity: 1;"/><g class="points"/></g><g class="trace violins" style="opacity: 0.7;"><path class="violin" d="M288.57,29.66L274.6,29.66Q272.31,37.1 271.37,40.84C270.43,44.55 269.57,48.29 268.95,52.03C268.34,55.74 267.9,59.48 267.68,63.21C267.46,66.93 267.48,70.67 267.62,74.39C267.76,78.12 268.13,81.86 268.52,85.58C268.91,89.31 269.46,93.04 269.97,96.76C270.48,100.49 271.06,104.21 271.58,107.94C272.1,111.67 272.62,115.4 273.09,119.13C273.55,122.86 273.97,126.58 274.37,130.31C274.76,134.04 275.12,137.77 275.46,141.5C275.8,145.23 276.12,148.95 276.43,152.68C276.74,156.41 277.04,160.13 277.34,163.86C277.64,167.59 277.93,171.32 278.21,175.05C278.49,178.78 278.78,182.5 279.04,186.23C279.3,189.96 279.55,193.68 279.77,197.41C279.99,201.14 280.19,204.87 280.37,208.6C280.54,212.33 280.69,216.05 280.82,219.78C280.94,223.51 281.03,227.23 281.12,230.96C281.21,234.69 281.28,238.42 281.35,242.15C281.42,245.88 281.48,249.6 281.55,253.33C281.62,257.06 281.68,260.78 281.76,264.51C281.84,268.24 281.93,271.97 282.02,275.7C282.11,279.43 282.2,283.15 282.3,286.88C282.4,290.61 282.49,294.34 282.6,298.07C282.7,301.8 282.81,305.52 282.93,309.25C283.05,312.98 283.17,316.7 283.3,320.43C283.43,324.16 283.56,327.89 283.7,331.62C283.84,335.35 283.99,339.07 284.14,342.8C284.29,346.53 284.44,350.25 284.59,353.98C284.74,357.71 284.9,361.44 285.06,365.17C285.22,368.9 285.38,372.62 285.54,376.35C285.7,380.08 285.86,383.8 286.02,387.53Q286.18,391.26 286.52,398.72L288.57,398.72" style="vector-effect: none; stroke-width: 2px; stroke: rgb(255, 0, 0); stroke-opacity: 1; fill: rgb(255, 0, 0); fill-opacity: 1;"/><path class="meanline" d="M275.9578552246094,147.11H288.57" style="fill: none; vector-effect: none; stroke-width: 10px; stroke-dasharray: 20px, 10px; stroke: rgb(0, 0, 0); stroke-opacity: 1;"/><g class="points"/></g><g class="trace violins" style="opacity: 0.7;"><path class="violin" d="M288.57,397.15L289.85,397.15Q290.1,389.77 290.25,386.08C290.39,382.39 290.55,378.71 290.72,375.02C290.89,371.33 291.07,367.65 291.27,363.96C291.47,360.27 291.69,356.58 291.94,352.89C292.19,349.2 292.46,345.52 292.76,341.83C293.06,338.14 293.39,334.46 293.72,330.77C294.05,327.08 294.41,323.39 294.75,319.7C295.08,316.01 295.43,312.33 295.73,308.64C296.02,304.95 296.31,301.27 296.52,297.58C296.73,293.89 296.9,290.21 297,286.52C297.1,282.83 297.13,279.14 297.11,275.45C297.09,271.76 297,268.08 296.88,264.39C296.76,260.7 296.59,257.02 296.41,253.33C296.23,249.64 296.02,245.95 295.82,242.26C295.62,238.57 295.42,234.89 295.22,231.2C295.03,227.51 294.83,223.83 294.65,220.14C294.47,216.45 294.3,212.76 294.13,209.07C293.96,205.38 293.8,201.7 293.65,198.01C293.5,194.32 293.35,190.64 293.23,186.95C293.11,183.26 292.99,179.57 292.91,175.88C292.83,172.19 292.76,168.51 292.74,164.82C292.72,161.13 292.72,157.45 292.78,153.76C292.84,150.07 292.93,146.38 293.08,142.69C293.23,139 293.42,135.31 293.68,131.63C293.94,127.94 294.25,124.25 294.64,120.57C295.03,116.88 295.48,113.19 296.03,109.51C296.58,105.81 297.21,102.12 297.93,98.44C298.65,94.74 299.5,91.06 300.37,87.38C301.25,83.69 302.24,80.01 303.19,76.32C304.14,72.63 305.19,68.95 306.05,65.25C306.91,61.57 307.78,57.89 308.36,54.19C308.93,50.52 309.39,46.82 309.51,43.13C309.63,39.45 309.48,35.73 309.07,32.06Q308.65,28.36 307,21L288.57,21" style="vector-effect: none; stroke-width: 2px; stroke: rgb(0, 128, 0); stroke-opacity: 1; fill: rgb(0, 128, 0); fill-opacity: 1;"/><path class="meanline" d="M293.5636901855469,133.35H288.57" style="fill: none; vector-effect: none; stroke-width: 10px; stroke-dasharray: 20px, 10px; stroke: rgb(0, 0, 0); stroke-opacity: 1;"/><g class="points"/></g></g></g></g><g class="zerolinelayer-above"/><path class="xlines-above crisp" d="M81,520.5H408.8M81,99.5H408.8" style="fill: none; stroke-width: 1px; stroke: rgb(0, 0, 0); stroke-opacity: 1;"/><path class="ylines-above crisp" d="M81.5,100V520M408.3,100V520" style="fill: none; stroke-width: 1px; stroke: rgb(0, 0, 0); stroke-opacity: 1;"/><g class="overlines-above"/><g class="xaxislayer-above"><path class="xtick ticks crisp" d="M0,521v5" transform="translate(119.22999999999999,0)" style="stroke: rgb(68, 68, 68); stroke-opacity: 1; stroke-width: 1px;"/><path class="xtick ticks crisp" d="M0,521v5" transform="translate(203.01,0)" style="stroke: rgb(68, 68, 68); stroke-opacity: 1; stroke-width: 1px;"/><path class="xtick ticks crisp" d="M0,521v5" transform="translate(286.78999999999996,0)" style="stroke: rgb(68, 68, 68); stroke-opacity: 1; stroke-width: 1px;"/><path class="xtick ticks crisp" d="M0,521v5" transform="translate(370.57,0)" style="stroke: rgb(68, 68, 68); stroke-opacity: 1; stroke-width: 1px;"/><g class="xtick"><text text-anchor="middle" x="0" y="550" transform="translate(119.22999999999999,0)" style="font-family: 'Open Sans', verdana, arial, sans-serif; font-size: 20px; fill: rgb(42, 63, 95); fill-opacity: 1; white-space: pre;">Clinton</text></g><g class="xtick"><text text-anchor="middle" x="0" y="550" transform="translate(203.01,0)" style="font-family: 'Open Sans', verdana, arial, sans-serif; font-size: 20px; fill: rgb(42, 63, 95); fill-opacity: 1; white-space: pre;">Yelp</text></g><g class="xtick"><text text-anchor="middle" x="0" y="550" transform="translate(286.78999999999996,0)" style="font-family: 'Open Sans', verdana, arial, sans-serif; font-size: 20px; fill: rgb(42, 63, 95); fill-opacity: 1; white-space: pre;">Enron</text></g><g class="xtick"><text text-anchor="middle" x="0" y="550" transform="translate(370.57,0)" style="font-family: 'Open Sans', verdana, arial, sans-serif; font-size: 20px; fill: rgb(42, 63, 95); fill-opacity: 1; white-space: pre;">Yahoo</text></g></g><g class="yaxislayer-above"><path class="ytick ticks crisp" d="M81,0h-5" transform="translate(0,499.19)" style="stroke: rgb(68, 68, 68); stroke-opacity: 1; stroke-width: 1px;"/><path class="ytick ticks crisp" d="M81,0h-5" transform="translate(0,422.71)" style="stroke: rgb(68, 68, 68); stroke-opacity: 1; stroke-width: 1px;"/><path class="ytick ticks crisp" d="M81,0h-5" transform="translate(0,346.22)" style="stroke: rgb(68, 68, 68); stroke-opacity: 1; stroke-width: 1px;"/><path class="ytick ticks crisp" d="M81,0h-5" transform="translate(0,269.73)" style="stroke: rgb(68, 68, 68); stroke-opacity: 1; stroke-width: 1px;"/><path class="ytick ticks crisp" d="M81,0h-5" transform="translate(0,193.25)" style="stroke: rgb(68, 68, 68); stroke-opacity: 1; stroke-width: 1px;"/><path class="ytick ticks crisp" d="M81,0h-5" transform="translate(0,116.76)" style="stroke: rgb(68, 68, 68); stroke-opacity: 1; stroke-width: 1px;"/><g class="ytick"><text text-anchor="end" x="72" y="7" transform="translate(0,499.19)" style="font-family: 'Open Sans', verdana, arial, sans-serif; font-size: 20px; fill: rgb(42, 63, 95); fill-opacity: 1; white-space: pre;">0.5</text></g><g class="ytick"><text text-anchor="end" x="72" y="7" style="font-family: 'Open Sans', verdana, arial, sans-serif; font-size: 20px; fill: rgb(42, 63, 95); fill-opacity: 1; white-space: pre;" transform="translate(0,422.71)">0.6</text></g><g class="ytick"><text text-anchor="end" x="72" y="7" style="font-family: 'Open Sans', verdana, arial, sans-serif; font-size: 20px; fill: rgb(42, 63, 95); fill-opacity: 1; white-space: pre;" transform="translate(0,346.22)">0.7</text></g><g class="ytick"><text text-anchor="end" x="72" y="7" style="font-family: 'Open Sans', verdana, arial, sans-serif; font-size: 20px; fill: rgb(42, 63, 95); fill-opacity: 1; white-space: pre;" transform="translate(0,269.73)">0.8</text></g><g class="ytick"><text text-anchor="end" x="72" y="7" style="font-family: 'Open Sans', verdana, arial, sans-serif; font-size: 20px; fill: rgb(42, 63, 95); fill-opacity: 1; white-space: pre;" transform="translate(0,193.25)">0.9</text></g><g class="ytick"><text text-anchor="end" x="72" y="7" style="font-family: 'Open Sans', verdana, arial, sans-serif; font-size: 20px; fill: rgb(42, 63, 95); fill-opacity: 1; white-space: pre;" transform="translate(0,116.76)">1</text></g></g><g class="overaxes-above"/></g><g class="subplot x2y2"><g class="layer-subplot"><g class="shapelayer"/><g class="imagelayer"/></g><g class="minor-gridlayer"><g class="x2"/><g class="y2"/></g><g class="gridlayer"><g class="x2"><path class="x2grid crisp" transform="translate(499.33,0)" d="M0,100v420" style="stroke: rgb(211, 211, 211); stroke-opacity: 1; stroke-width: 1px;"/><path class="x2grid crisp" transform="translate(583.11,0)" d="M0,100v420" style="stroke: rgb(211, 211, 211); stroke-opacity: 1; stroke-width: 1px;"/><path class="x2grid crisp" transform="translate(666.89,0)" d="M0,100v420" style="stroke: rgb(211, 211, 211); stroke-opacity: 1; stroke-width: 1px;"/><path class="x2grid crisp" transform="translate(750.67,0)" d="M0,100v420" style="stroke: rgb(211, 211, 211); stroke-opacity: 1; stroke-width: 1px;"/></g><g class="y2"><path class="y2grid crisp" transform="translate(0,499.19)" d="M462.09999999999997,0h325.79999999999995" style="stroke: rgb(211, 211, 211); stroke-opacity: 1; stroke-width: 1px;"/><path class="y2grid crisp" transform="translate(0,422.71)" d="M462.09999999999997,0h325.79999999999995" style="stroke: rgb(211, 211, 211); stroke-opacity: 1; stroke-width: 1px;"/><path class="y2grid crisp" transform="translate(0,346.22)" d="M462.09999999999997,0h325.79999999999995" style="stroke: rgb(211, 211, 211); stroke-opacity: 1; stroke-width: 1px;"/><path class="y2grid crisp" transform="translate(0,269.73)" d="M462.09999999999997,0h325.79999999999995" style="stroke: rgb(211, 211, 211); stroke-opacity: 1; stroke-width: 1px;"/><path class="y2grid crisp" transform="translate(0,193.25)" d="M462.09999999999997,0h325.79999999999995" style="stroke: rgb(211, 211, 211); stroke-opacity: 1; stroke-width: 1px;"/><path class="y2grid crisp" transform="translate(0,116.76)" d="M462.09999999999997,0h325.79999999999995" style="stroke: rgb(211, 211, 211); stroke-opacity: 1; stroke-width: 1px;"/></g></g><g class="zerolinelayer"/><g class="layer-between"><g class="shapelayer"/><g class="imagelayer"/></g><path class="xlines-below"/><path class="ylines-below"/><g class="overlines-below"/><g class="xaxislayer-below"/><g class="yaxislayer-below"/><g class="overaxes-below"/><g class="overplot"><g class="x2y2" transform="translate(462.09999999999997,100)" clip-path="url(#clip7b3f08x2y2plot)"><g class="violinlayer mlayer"><g class="trace violins" style="opacity: 0.7;"><path class="violin" d="M37.23,57.48L28.26,57.48Q26.81,66.59 26.25,71.16C25.69,75.71 25.18,80.27 24.88,84.84C24.58,89.39 24.43,93.96 24.43,98.52C24.43,103.08 24.62,107.64 24.9,112.2C25.18,116.76 25.63,121.32 26.1,125.88C26.57,130.44 27.16,135 27.7,139.56C28.24,144.12 28.83,148.69 29.36,153.25C29.88,157.81 30.4,162.37 30.85,166.93C31.3,171.49 31.71,176.05 32.06,180.61C32.41,185.17 32.7,189.73 32.96,194.29C33.21,198.85 33.42,203.41 33.59,207.97C33.76,212.53 33.89,217.09 33.97,221.65C34.05,226.21 34.1,230.77 34.07,235.33C34.04,239.89 33.98,244.45 33.81,249.01C33.64,253.57 33.4,258.14 33.02,262.7C32.64,267.27 32.16,271.83 31.51,276.38C30.86,280.95 30.05,285.51 29.11,290.06C28.17,294.63 27.02,299.19 25.87,303.74C24.72,308.31 23.38,312.85 22.2,317.42C21.03,321.97 19.75,326.52 18.82,331.1C17.9,335.64 17.04,340.21 16.62,344.78C16.2,349.33 16.07,353.91 16.29,358.46C16.52,363.03 17.16,367.61 17.98,372.15Q18.81,376.73 21.26,385.83L37.23,385.83" style="vector-effect: none; stroke-width: 2px; stroke: rgb(255, 0, 0); stroke-opacity: 1; fill: rgb(255, 0, 0); fill-opacity: 1;"/><path class="meanline" d="M33.83147048950195,248.41H37.23" style="fill: none; vector-effect: none; stroke-width: 10px; stroke-dasharray: 20px, 10px; stroke: rgb(0, 0, 0); stroke-opacity: 1;"/><g class="points"/></g><g class="trace violins" style="opacity: 0.7;"><path class="violin" d="M37.23,395.33L38.59,395.33Q39.07,387.96 39.37,384.28C39.67,380.6 40.01,376.92 40.38,373.24C40.75,369.56 41.17,365.87 41.58,362.19C42,358.51 42.45,354.82 42.87,351.14C43.29,347.46 43.73,343.77 44.11,340.09C44.49,336.41 44.86,332.73 45.15,329.05C45.44,325.37 45.7,321.68 45.87,318C46.04,314.32 46.16,310.63 46.18,306.95C46.2,303.27 46.15,299.59 46.02,295.91C45.89,292.23 45.67,288.54 45.4,284.86C45.13,281.17 44.78,277.49 44.41,273.81C44.04,270.12 43.6,266.44 43.18,262.76C42.76,259.08 42.3,255.4 41.88,251.72C41.47,248.04 41.05,244.36 40.69,240.67C40.33,236.99 40,233.3 39.73,229.62C39.46,225.94 39.23,222.26 39.06,218.58C38.89,214.9 38.77,211.21 38.71,207.53C38.65,203.85 38.63,200.16 38.67,196.48C38.71,192.8 38.79,189.11 38.93,185.43C39.07,181.75 39.25,178.07 39.5,174.39C39.75,170.71 40.06,167.02 40.45,163.34C40.85,159.65 41.3,155.97 41.87,152.29C42.44,148.6 43.1,144.92 43.87,141.25C44.64,137.56 45.53,133.87 46.48,130.2C47.44,126.51 48.53,122.83 49.6,119.15C50.67,115.46 51.85,111.79 52.89,108.1C53.92,104.43 55,100.76 55.81,97.06C56.61,93.39 57.35,89.71 57.74,86.01C58.13,82.34 58.31,78.64 58.18,74.96C58.05,71.27 57.6,67.58 56.96,63.92C56.31,60.22 55.33,56.54 54.31,52.87Q53.28,49.17 50.81,41.82L37.23,41.82" style="vector-effect: none; stroke-width: 2px; stroke: rgb(0, 128, 0); stroke-opacity: 1; fill: rgb(0, 128, 0); fill-opacity: 1;"/><path class="meanline" d="M41.31357955932617,156.15H37.23" style="fill: none; vector-effect: none; stroke-width: 10px; stroke-dasharray: 20px, 10px; stroke: rgb(0, 0, 0); stroke-opacity: 1;"/><g class="points"/></g><g class="trace violins" style="opacity: 0.7;"><path class="violin" d="M121.01,40.79L109.47,40.79Q107.12,47.73 106.05,51.22C104.99,54.69 103.91,58.16 103.06,61.65C102.22,65.11 101.47,68.59 100.97,72.08C100.48,75.54 100.17,79.03 100.07,82.51C99.97,85.99 100.1,89.48 100.34,92.95C100.58,96.43 101.05,99.91 101.52,103.38C102,106.86 102.62,110.33 103.19,113.81C103.76,117.29 104.4,120.76 104.96,124.24C105.52,127.71 106.08,131.19 106.57,134.67C107.06,138.14 107.49,141.62 107.89,145.1C108.29,148.57 108.63,152.05 108.96,155.53C109.28,159.01 109.56,162.48 109.84,165.96C110.12,169.44 110.36,172.92 110.62,176.4C110.87,179.88 111.12,183.35 111.37,186.83C111.61,190.31 111.86,193.78 112.09,197.26C112.31,200.74 112.54,204.21 112.72,207.69C112.9,211.17 113.07,214.64 113.18,218.12C113.29,221.6 113.37,225.07 113.39,228.55C113.41,232.03 113.38,235.5 113.31,238.98C113.24,242.46 113.11,245.94 112.97,249.42C112.83,252.9 112.63,256.37 112.46,259.85C112.29,263.33 112.09,266.8 111.94,270.28C111.79,273.76 111.65,277.23 111.58,280.71C111.51,284.19 111.47,287.66 111.52,291.14C111.57,294.62 111.68,298.09 111.86,301.57C112.04,305.05 112.29,308.53 112.58,312C112.87,315.48 113.23,318.95 113.59,322.43C113.95,325.91 114.37,329.39 114.76,332.87C115.15,336.35 115.55,339.82 115.92,343.3C116.29,346.78 116.65,350.25 116.97,353.73C117.29,357.21 117.58,360.68 117.84,364.16C118.1,367.64 118.32,371.11 118.53,374.59C118.74,378.07 118.91,381.54 119.08,385.02Q119.24,388.5 119.52,395.45L121.01,395.45" style="vector-effect: none; stroke-width: 2px; stroke: rgb(255, 0, 0); stroke-opacity: 1; fill: rgb(255, 0, 0); fill-opacity: 1;"/><path class="meanline" d="M109.68824768066406,164.08H121.01" style="fill: none; vector-effect: none; stroke-width: 10px; stroke-dasharray: 20px, 10px; stroke: rgb(0, 0, 0); stroke-opacity: 1;"/><g class="points"/></g><g class="trace violins" style="opacity: 0.7;"><path class="violin" d="M121.01,392.55L128.91,392.55Q130.86,383.92 131.74,379.59C132.61,375.28 133.52,370.97 134.16,366.64C134.79,362.33 135.33,358.01 135.56,353.68C135.79,349.37 135.78,345.04 135.54,340.73C135.3,336.4 134.76,332.08 134.13,327.77C133.5,323.44 132.59,319.12 131.74,314.81C130.89,310.49 129.88,306.18 129.01,301.86C128.14,297.54 127.25,293.23 126.51,288.9C125.77,284.59 125.12,280.27 124.58,275.94C124.05,271.63 123.63,267.31 123.3,262.99C122.97,258.67 122.77,254.35 122.61,250.03C122.45,245.71 122.38,241.39 122.36,237.07C122.34,232.75 122.38,228.44 122.46,224.12C122.54,219.8 122.67,215.48 122.84,211.16C123.02,206.84 123.23,202.53 123.51,198.21C123.79,193.89 124.12,189.57 124.52,185.25C124.92,180.93 125.38,176.6 125.93,172.29C126.48,167.97 127.12,163.65 127.84,159.34C128.57,155.01 129.4,150.69 130.29,146.38C131.18,142.05 132.19,137.74 133.19,133.42C134.19,129.1 135.3,124.79 136.3,120.47C137.3,116.16 138.35,111.84 139.17,107.51C139.99,103.2 140.76,98.88 141.23,94.55C141.69,90.24 141.98,85.92 141.96,81.6C141.94,77.28 141.62,72.94 141.08,68.64C140.54,64.31 139.66,59.99 138.71,55.69Q137.75,51.35 135.33,42.73L121.01,42.73" style="vector-effect: none; stroke-width: 2px; stroke: rgb(0, 128, 0); stroke-opacity: 1; fill: rgb(0, 128, 0); fill-opacity: 1;"/><path class="meanline" d="M124.46604919433594,185.84H121.01" style="fill: none; vector-effect: none; stroke-width: 10px; stroke-dasharray: 20px, 10px; stroke: rgb(0, 0, 0); stroke-opacity: 1;"/><g class="points"/></g><g class="trace violins" style="opacity: 0.7;"><path class="violin" d="M204.79,48.17L196.76,48.17Q195.35,55.44 194.71,59.08C194.08,62.72 193.45,66.36 192.95,70C192.45,73.63 192.01,77.27 191.7,80.91C191.39,84.54 191.18,88.18 191.07,91.82C190.96,95.46 190.97,99.09 191.06,102.73C191.15,106.37 191.35,110.01 191.6,113.64C191.85,117.28 192.19,120.91 192.55,124.55C192.91,128.19 193.33,131.83 193.74,135.47C194.15,139.11 194.59,142.74 194.99,146.38C195.39,150.02 195.78,153.65 196.12,157.29C196.46,160.92 196.78,164.56 197.03,168.2C197.28,171.83 197.49,175.47 197.64,179.11C197.78,182.75 197.88,186.38 197.9,190.02C197.92,193.66 197.89,197.29 197.76,200.93C197.63,204.57 197.43,208.21 197.12,211.85C196.81,215.49 196.42,219.13 195.92,222.76C195.42,226.4 194.8,230.04 194.12,233.67C193.44,237.31 192.64,240.95 191.84,244.58C191.04,248.22 190.14,251.85 189.32,255.49C188.5,259.12 187.64,262.75 186.93,266.4C186.22,270.03 185.54,273.67 185.05,277.32C184.56,280.95 184.17,284.59 183.97,288.23C183.77,291.86 183.73,295.51 183.84,299.14C183.95,302.78 184.26,306.42 184.66,310.05C185.07,313.69 185.64,317.33 186.27,320.96C186.9,324.6 187.67,328.24 188.46,331.87C189.25,335.51 190.13,339.14 190.99,342.78C191.85,346.42 192.76,350.06 193.63,353.7C194.49,357.34 195.37,360.97 196.18,364.61C196.99,368.24 197.77,371.88 198.48,375.52Q199.18,379.15 200.41,386.43L204.79,386.43" style="vector-effect: none; stroke-width: 2px; stroke: rgb(255, 0, 0); stroke-opacity: 1; fill: rgb(255, 0, 0); fill-opacity: 1;"/><path class="meanline" d="M196.24803161621094,220.25H204.79" style="fill: none; vector-effect: none; stroke-width: 10px; stroke-dasharray: 20px, 10px; stroke: rgb(0, 0, 0); stroke-opacity: 1;"/><g class="points"/></g><g class="trace violins" style="opacity: 0.7;"><path class="violin" d="M204.79,390.36L214.01,390.36Q216.56,382.43 217.81,378.46C219.05,374.49 220.39,370.54 221.48,366.55C222.56,362.6 223.6,358.64 224.31,354.65C225.01,350.7 225.52,346.72 225.73,342.74C225.94,338.78 225.85,334.8 225.58,330.84C225.31,326.86 224.73,322.89 224.1,318.93C223.47,314.95 222.62,310.99 221.81,307.03C221,303.06 220.08,299.09 219.23,295.12C218.38,291.15 217.5,287.19 216.69,283.22C215.88,279.25 215.1,275.28 214.38,271.31C213.66,267.35 212.97,263.38 212.35,259.41C211.73,255.45 211.15,251.47 210.66,247.5C210.17,243.54 209.73,239.57 209.39,235.6C209.05,231.63 208.77,227.66 208.61,223.69C208.45,219.72 208.37,215.76 208.4,211.79C208.43,207.82 208.57,203.85 208.81,199.88C209.05,195.91 209.39,191.94 209.82,187.98C210.25,184.01 210.79,180.03 211.38,176.07C211.97,172.1 212.66,168.13 213.36,164.17C214.06,160.2 214.85,156.23 215.6,152.26C216.35,148.29 217.15,144.33 217.88,140.36C218.61,136.39 219.34,132.42 219.97,128.45C220.59,124.49 221.19,120.52 221.63,116.55C222.07,112.59 222.43,108.61 222.62,104.64C222.81,100.68 222.89,96.71 222.78,92.74C222.67,88.77 222.4,84.79 221.98,80.83C221.56,76.85 220.94,72.89 220.25,68.93C219.55,64.95 218.68,60.99 217.8,57.03Q216.92,53.05 214.96,45.12L204.79,45.12" style="vector-effect: none; stroke-width: 2px; stroke: rgb(0, 128, 0); stroke-opacity: 1; fill: rgb(0, 128, 0); fill-opacity: 1;"/><path class="meanline" d="M208.4666748046875,219.28H204.79" style="fill: none; vector-effect: none; stroke-width: 10px; stroke-dasharray: 20px, 10px; stroke: rgb(0, 0, 0); stroke-opacity: 1;"/><g class="points"/></g><g class="trace violins" style="opacity: 0.7;"><path class="violin" d="M288.57,47.16L279.62,47.16Q278.12,55.94 277.47,60.33C276.82,64.72 276.21,69.1 275.73,73.5C275.25,77.88 274.85,82.28 274.6,86.67C274.35,91.05 274.22,95.44 274.21,99.83C274.2,104.22 274.33,108.61 274.53,113C274.74,117.39 275.07,121.78 275.44,126.17C275.82,130.56 276.29,134.95 276.78,139.34C277.27,143.73 277.83,148.12 278.37,152.51C278.91,156.9 279.49,161.29 280.04,165.68C280.59,170.07 281.14,174.46 281.65,178.85C282.16,183.24 282.66,187.62 283.11,192.01C283.56,196.4 283.98,200.79 284.33,205.18C284.68,209.57 284.99,213.96 285.22,218.35C285.45,222.74 285.64,227.13 285.72,231.52C285.8,235.91 285.81,240.3 285.68,244.69C285.55,249.08 285.34,253.48 284.96,257.86C284.58,262.26 284.08,266.65 283.4,271.03C282.72,275.43 281.86,279.82 280.89,284.19C279.91,288.59 278.73,292.98 277.55,297.36C276.37,301.76 275,306.13 273.8,310.53C272.6,314.91 271.32,319.29 270.36,323.7C269.41,328.07 268.54,332.46 268.08,336.87C267.63,341.24 267.44,345.66 267.62,350.04C267.8,354.44 268.38,358.84 269.15,363.21Q269.92,367.62 272.26,376.37L288.57,376.37" style="vector-effect: none; stroke-width: 2px; stroke: rgb(255, 0, 0); stroke-opacity: 1; fill: rgb(255, 0, 0); fill-opacity: 1;"/><path class="meanline" d="M285.712890625,231.16H288.57" style="fill: none; vector-effect: none; stroke-width: 10px; stroke-dasharray: 20px, 10px; stroke: rgb(0, 0, 0); stroke-opacity: 1;"/><g class="points"/></g><g class="trace violins" style="opacity: 0.7;"><path class="violin" d="M288.57,397.88L290.77,397.88Q291.42,390.49 291.77,386.79C292.12,383.09 292.49,379.39 292.87,375.69C293.24,371.99 293.64,368.3 294.02,364.6C294.41,360.9 294.79,357.2 295.18,353.5C295.57,349.8 295.95,346.1 296.37,342.4C296.79,338.7 297.22,335.01 297.68,331.31C298.14,327.61 298.63,323.91 299.11,320.21C299.59,316.51 300.11,312.82 300.56,309.12C301.01,305.42 301.47,301.72 301.79,298.02C302.11,294.33 302.39,290.63 302.49,286.93C302.59,283.23 302.58,279.53 302.42,275.83C302.26,272.13 301.93,268.43 301.51,264.74C301.09,261.03 300.51,257.33 299.91,253.64C299.31,249.94 298.59,246.25 297.92,242.55C297.25,238.85 296.52,235.15 295.89,231.45C295.26,227.76 294.65,224.06 294.15,220.36C293.65,216.67 293.21,212.96 292.88,209.26C292.55,205.56 292.33,201.86 292.19,198.16C292.05,194.46 292.01,190.77 292.05,187.07C292.09,183.37 292.22,179.67 292.42,175.97C292.62,172.27 292.89,168.57 293.23,164.88C293.57,161.18 293.97,157.47 294.44,153.78C294.91,150.08 295.45,146.38 296.06,142.69C296.67,138.98 297.37,135.28 298.12,131.59C298.87,127.89 299.72,124.19 300.58,120.5C301.44,116.8 302.4,113.1 303.3,109.4C304.2,105.7 305.18,102.02 306,98.31C306.82,94.62 307.65,90.92 308.24,87.21C308.82,83.52 309.31,79.82 309.51,76.12C309.71,72.43 309.7,68.71 309.42,65.02C309.14,61.31 308.57,57.6 307.84,53.92Q307.1,50.2 305.01,42.83L288.57,42.83" style="vector-effect: none; stroke-width: 2px; stroke: rgb(0, 128, 0); stroke-opacity: 1; fill: rgb(0, 128, 0); fill-opacity: 1;"/><path class="meanline" d="M292.624267578125,172.56H288.57" style="fill: none; vector-effect: none; stroke-width: 10px; stroke-dasharray: 20px, 10px; stroke: rgb(0, 0, 0); stroke-opacity: 1;"/><g class="points"/></g></g></g></g><g class="zerolinelayer-above"/><path class="xlines-above crisp" d="M461.09999999999997,520.5H788.8999999999999M461.09999999999997,99.5H788.8999999999999" style="fill: none; stroke-width: 1px; stroke: rgb(0, 0, 0); stroke-opacity: 1;"/><path class="ylines-above crisp" d="M461.59999999999997,100V520M788.3999999999999,100V520" style="fill: none; stroke-width: 1px; stroke: rgb(0, 0, 0); stroke-opacity: 1;"/><g class="overlines-above"/><g class="xaxislayer-above"><path class="x2tick ticks crisp" d="M0,521v5" transform="translate(499.33,0)" style="stroke: rgb(68, 68, 68); stroke-opacity: 1; stroke-width: 1px;"/><path class="x2tick ticks crisp" d="M0,521v5" transform="translate(583.11,0)" style="stroke: rgb(68, 68, 68); stroke-opacity: 1; stroke-width: 1px;"/><path class="x2tick ticks crisp" d="M0,521v5" transform="translate(666.89,0)" style="stroke: rgb(68, 68, 68); stroke-opacity: 1; stroke-width: 1px;"/><path class="x2tick ticks crisp" d="M0,521v5" transform="translate(750.67,0)" style="stroke: rgb(68, 68, 68); stroke-opacity: 1; stroke-width: 1px;"/><g class="x2tick"><text text-anchor="middle" x="0" y="550" transform="translate(499.33,0)" style="font-family: 'Open Sans', verdana, arial, sans-serif; font-size: 20px; fill: rgb(42, 63, 95); fill-opacity: 1; white-space: pre;">Clinton</text></g><g class="x2tick"><text text-anchor="middle" x="0" y="550" transform="translate(583.11,0)" style="font-family: 'Open Sans', verdana, arial, sans-serif; font-size: 20px; fill: rgb(42, 63, 95); fill-opacity: 1; white-space: pre;">Yelp</text></g><g class="x2tick"><text text-anchor="middle" x="0" y="550" transform="translate(666.89,0)" style="font-family: 'Open Sans', verdana, arial, sans-serif; font-size: 20px; fill: rgb(42, 63, 95); fill-opacity: 1; white-space: pre;">Enron</text></g><g class="x2tick"><text text-anchor="middle" x="0" y="550" transform="translate(750.67,0)" style="font-family: 'Open Sans', verdana, arial, sans-serif; font-size: 20px; fill: rgb(42, 63, 95); fill-opacity: 1; white-space: pre;">Yahoo</text></g></g><g class="yaxislayer-above"><path class="y2tick ticks crisp" d="M461.09999999999997,0h-5" transform="translate(0,499.19)" style="stroke: rgb(68, 68, 68); stroke-opacity: 1; stroke-width: 1px;"/><path class="y2tick ticks crisp" d="M461.09999999999997,0h-5" transform="translate(0,422.71)" style="stroke: rgb(68, 68, 68); stroke-opacity: 1; stroke-width: 1px;"/><path class="y2tick ticks crisp" d="M461.09999999999997,0h-5" transform="translate(0,346.22)" style="stroke: rgb(68, 68, 68); stroke-opacity: 1; stroke-width: 1px;"/><path class="y2tick ticks crisp" d="M461.09999999999997,0h-5" transform="translate(0,269.73)" style="stroke: rgb(68, 68, 68); stroke-opacity: 1; stroke-width: 1px;"/><path class="y2tick ticks crisp" d="M461.09999999999997,0h-5" transform="translate(0,193.25)" style="stroke: rgb(68, 68, 68); stroke-opacity: 1; stroke-width: 1px;"/><path class="y2tick ticks crisp" d="M461.09999999999997,0h-5" transform="translate(0,116.76)" style="stroke: rgb(68, 68, 68); stroke-opacity: 1; stroke-width: 1px;"/></g><g class="overaxes-above"/></g><g class="subplot x3y3"><g class="layer-subplot"><g class="shapelayer"/><g class="imagelayer"/></g><g class="minor-gridlayer"><g class="x3"/><g class="y3"/></g><g class="gridlayer"><g class="x3"><path class="x3grid crisp" transform="translate(879.43,0)" d="M0,100v420" style="stroke: rgb(211, 211, 211); stroke-opacity: 1; stroke-width: 1px;"/><path class="x3grid crisp" transform="translate(963.2099999999999,0)" d="M0,100v420" style="stroke: rgb(211, 211, 211); stroke-opacity: 1; stroke-width: 1px;"/><path class="x3grid crisp" transform="translate(1046.99,0)" d="M0,100v420" style="stroke: rgb(211, 211, 211); stroke-opacity: 1; stroke-width: 1px;"/><path class="x3grid crisp" transform="translate(1130.77,0)" d="M0,100v420" style="stroke: rgb(211, 211, 211); stroke-opacity: 1; stroke-width: 1px;"/></g><g class="y3"><path class="y3grid crisp" transform="translate(0,499.19)" d="M842.1999999999999,0h325.80000000000007" style="stroke: rgb(211, 211, 211); stroke-opacity: 1; stroke-width: 1px;"/><path class="y3grid crisp" transform="translate(0,422.71)" d="M842.1999999999999,0h325.80000000000007" style="stroke: rgb(211, 211, 211); stroke-opacity: 1; stroke-width: 1px;"/><path class="y3grid crisp" transform="translate(0,346.22)" d="M842.1999999999999,0h325.80000000000007" style="stroke: rgb(211, 211, 211); stroke-opacity: 1; stroke-width: 1px;"/><path class="y3grid crisp" transform="translate(0,269.73)" d="M842.1999999999999,0h325.80000000000007" style="stroke: rgb(211, 211, 211); stroke-opacity: 1; stroke-width: 1px;"/><path class="y3grid crisp" transform="translate(0,193.25)" d="M842.1999999999999,0h325.80000000000007" style="stroke: rgb(211, 211, 211); stroke-opacity: 1; stroke-width: 1px;"/><path class="y3grid crisp" transform="translate(0,116.76)" d="M842.1999999999999,0h325.80000000000007" style="stroke: rgb(211, 211, 211); stroke-opacity: 1; stroke-width: 1px;"/></g></g><g class="zerolinelayer"/><g class="layer-between"><g class="shapelayer"/><g class="imagelayer"/></g><path class="xlines-below"/><path class="ylines-below"/><g class="overlines-below"/><g class="xaxislayer-below"/><g class="yaxislayer-below"/><g class="overaxes-below"/><g class="overplot"><g class="x3y3" transform="translate(842.1999999999999,100)" clip-path="url(#clip7b3f08x3y3plot)"><g class="violinlayer mlayer"><g class="trace violins" style="opacity: 0.7;"><path class="violin" d="M37.23,324.08L31.74,324.08Q30.07,325.33 29.16,325.93C28.2,326.56 27.16,327.16 26.14,327.77C25.11,328.39 24,328.99 23,329.62C22.05,330.22 21.05,330.8 20.28,331.46C19.6,332.04 18.87,332.64 18.55,333.31C18.27,333.88 18.13,334.56 18.27,335.15C18.43,335.8 19.03,336.43 19.61,337C20.3,337.68 21.31,338.25 22.27,338.84C23.32,339.49 24.54,340.08 25.68,340.69C26.83,341.31 28.04,341.9 29.14,342.53C30.17,343.13 31.2,343.73 32.09,344.38C32.89,344.97 33.65,345.57 34.26,346.22C34.81,346.81 35.28,347.43 35.62,348.07C35.94,348.66 36.16,349.29 36.28,349.91C36.4,350.52 36.42,351.15 36.34,351.76C36.26,352.38 36.07,353.01 35.79,353.6C35.48,354.24 35.05,354.87 34.52,355.45C33.93,356.11 33.16,356.71 32.34,357.29C31.41,357.95 30.32,358.55 29.2,359.14C27.99,359.78 26.63,360.37 25.32,360.98C23.99,361.6 22.55,362.19 21.29,362.83C20.12,363.42 18.88,363.99 18,364.68C17.28,365.24 16.48,365.85 16.29,366.52C16.13,367.1 16.32,367.81 16.67,368.37Q17.11,369.07 19.02,370.21L37.23,370.21" style="vector-effect: none; stroke-width: 2px; stroke: rgb(255, 0, 0); stroke-opacity: 1; fill: rgb(255, 0, 0); fill-opacity: 1;"/><path class="meanline" d="M36.37188720703125,350.59H37.23" style="fill: none; vector-effect: none; stroke-width: 10px; stroke-dasharray: 20px, 10px; stroke: rgb(0, 0, 0); stroke-opacity: 1;"/><g class="points"/></g><g class="trace violins" style="opacity: 0.7;"><path class="violin" d="M37.23,370.47L50.4,370.47Q52.32,369.51 53.02,368.94C53.6,368.47 54.25,367.97 54.42,367.42C54.57,366.94 54.46,366.36 54.21,365.89C53.9,365.32 53.14,364.84 52.46,364.37C51.66,363.82 50.64,363.34 49.68,362.84C48.68,362.32 47.56,361.84 46.56,361.32C45.61,360.82 44.62,360.33 43.8,359.79C43.08,359.31 42.36,358.83 41.88,358.27C41.48,357.8 41.12,357.27 41.02,356.74C40.93,356.25 41.04,355.7 41.24,355.22C41.46,354.68 41.93,354.17 42.39,353.69C42.9,353.15 43.57,352.67 44.21,352.17C44.88,351.65 45.63,351.16 46.31,350.64C46.97,350.14 47.66,349.65 48.21,349.11C48.71,348.63 49.21,348.13 49.49,347.59C49.74,347.11 49.89,346.57 49.9,346.06C49.91,345.55 49.71,345.04 49.53,344.54C49.34,344.02 48.98,343.53 48.76,343.01C48.55,342.51 48.27,342 48.22,341.49C48.17,340.99 48.24,340.44 48.47,339.96C48.73,339.41 49.27,338.91 49.81,338.44C50.44,337.89 51.3,337.4 52.1,336.91C52.95,336.39 53.94,335.91 54.79,335.39C55.59,334.9 56.48,334.43 57.07,333.86C57.56,333.39 58.1,332.87 58.18,332.34C58.26,331.85 58.01,331.27 57.67,330.81C57.24,330.23 56.37,329.76 55.57,329.29C54.63,328.73 53.45,328.25 52.33,327.76Q51.14,327.24 48.62,326.24L37.23,326.24" style="vector-effect: none; stroke-width: 2px; stroke: rgb(0, 128, 0); stroke-opacity: 1; fill: rgb(0, 128, 0); fill-opacity: 1;"/><path class="meanline" d="M49.68123245239258,347.16H37.23" style="fill: none; vector-effect: none; stroke-width: 10px; stroke-dasharray: 20px, 10px; stroke: rgb(0, 0, 0); stroke-opacity: 1;"/><g class="points"/></g><g class="trace violins" style="opacity: 0.7;"><path class="violin" d="M121.01,326.72L109.35,326.72Q106.92,327.57 105.77,328.01C104.69,328.43 103.56,328.83 102.64,329.3C101.86,329.7 101.01,330.09 100.59,330.6C100.27,330.99 100,331.48 100.07,331.89C100.14,332.34 100.67,332.79 101.15,333.18C101.76,333.68 102.68,334.07 103.53,334.48C104.46,334.93 105.54,335.34 106.53,335.77C107.49,336.2 108.52,336.6 109.38,337.06C110.14,337.47 110.92,337.87 111.43,338.36C111.84,338.75 112.22,339.2 112.32,339.65C112.41,340.06 112.26,340.53 112.08,340.94C111.88,341.4 111.45,341.81 111.1,342.24C110.75,342.68 110.29,343.08 109.98,343.53C109.7,343.94 109.38,344.38 109.3,344.82C109.23,345.24 109.3,345.71 109.49,346.12C109.7,346.58 110.16,347 110.61,347.41C111.12,347.88 111.81,348.29 112.45,348.71C113.13,349.15 113.89,349.57 114.59,350C115.28,350.43 116,350.84 116.63,351.29C117.22,351.71 117.8,352.14 118.29,352.59C118.73,353 119.14,353.43 119.45,353.88C119.74,354.29 119.97,354.73 120.13,355.17C120.28,355.59 120.37,356.04 120.4,356.47C120.43,356.9 120.39,357.34 120.29,357.76C120.19,358.2 120.03,358.63 119.81,359.05C119.57,359.5 119.25,359.94 118.89,360.35C118.49,360.8 118.01,361.23 117.5,361.64C116.95,362.09 116.31,362.51 115.69,362.93C115.04,363.37 114.33,363.79 113.68,364.23C113.05,364.66 112.38,365.06 111.84,365.52C111.36,365.93 110.84,366.34 110.57,366.81C110.34,367.21 110.17,367.69 110.21,368.11C110.25,368.55 110.55,369 110.86,369.4Q111.22,369.87 112.34,370.69L121.01,370.69" style="vector-effect: none; stroke-width: 2px; stroke: rgb(255, 0, 0); stroke-opacity: 1; fill: rgb(255, 0, 0); fill-opacity: 1;"/><path class="meanline" d="M109.73546600341797,343.89H121.01" style="fill: none; vector-effect: none; stroke-width: 10px; stroke-dasharray: 20px, 10px; stroke: rgb(0, 0, 0); stroke-opacity: 1;"/><g class="points"/></g><g class="trace violins" style="opacity: 0.7;"><path class="violin" d="M121.01,382L127.38,382Q128.67,380.71 129.32,380.06C129.96,379.42 130.61,378.78 131.25,378.13C131.88,377.49 132.51,376.85 133.13,376.2C133.74,375.56 134.35,374.92 134.92,374.27C135.48,373.63 136.05,372.99 136.51,372.33C136.95,371.7 137.41,371.07 137.65,370.4C137.87,369.78 138.03,369.1 137.96,368.47C137.88,367.82 137.57,367.15 137.16,366.54C136.7,365.84 135.96,365.21 135.22,364.6C134.4,363.92 133.4,363.3 132.44,362.67C131.45,362.02 130.37,361.39 129.38,360.74C128.42,360.11 127.43,359.48 126.57,358.81C125.77,358.19 125,357.56 124.36,356.88C123.78,356.26 123.26,355.61 122.87,354.94C122.51,354.32 122.23,353.67 122.06,353.01C121.89,352.38 121.81,351.72 121.82,351.08C121.83,350.44 121.95,349.78 122.15,349.15C122.37,348.49 122.69,347.83 123.11,347.21C123.57,346.53 124.19,345.89 124.87,345.28C125.64,344.59 126.57,343.96 127.54,343.35C128.61,342.67 129.84,342.05 131.05,341.42C132.32,340.76 133.71,340.13 134.99,339.48C136.24,338.84 137.57,338.24 138.65,337.55C139.6,336.94 140.64,336.35 141.19,335.62C141.64,335.03 142.02,334.32 141.96,333.69C141.9,333.03 141.33,332.34 140.76,331.75C140.07,331.03 138.97,330.43 137.94,329.82Q136.8,329.14 134.21,327.89L121.01,327.89" style="vector-effect: none; stroke-width: 2px; stroke: rgb(0, 128, 0); stroke-opacity: 1; fill: rgb(0, 128, 0); fill-opacity: 1;"/><path class="meanline" d="M121.94309997558594,352.5H121.01" style="fill: none; vector-effect: none; stroke-width: 10px; stroke-dasharray: 20px, 10px; stroke: rgb(0, 0, 0); stroke-opacity: 1;"/><g class="points"/></g><g class="trace violins" style="opacity: 0.7;"><path class="violin" d="M204.79,327.58L199.21,327.58Q198.08,328.82 197.56,329.45C197.05,330.07 196.55,330.69 196.1,331.33C195.67,331.94 195.28,332.57 194.9,333.2C194.52,333.82 194.22,334.46 193.83,335.08C193.43,335.71 193.04,336.34 192.55,336.95C192.03,337.6 191.42,338.22 190.77,338.83C190.07,339.48 189.25,340.08 188.47,340.7C187.68,341.33 186.78,341.92 186.06,342.57C185.4,343.17 184.65,343.77 184.28,344.45C183.96,345.03 183.73,345.72 183.84,346.32C183.96,346.97 184.55,347.62 185.13,348.2C185.84,348.9 186.92,349.47 187.94,350.07C189.08,350.73 190.41,351.33 191.66,351.95C192.93,352.58 194.28,353.18 195.5,353.82C196.66,354.43 197.82,355.04 198.82,355.7C199.72,356.3 200.58,356.9 201.28,357.57C201.9,358.16 202.46,358.79 202.86,359.45C203.23,360.05 203.5,360.68 203.66,361.32C203.81,361.93 203.86,362.58 203.82,363.2C203.78,363.83 203.64,364.46 203.42,365.07C203.19,365.71 202.84,366.35 202.43,366.95C201.99,367.6 201.43,368.22 200.84,368.82C200.2,369.47 199.46,370.08 198.72,370.7C197.96,371.34 197.12,371.94 196.35,372.57C195.6,373.19 194.8,373.79 194.18,374.45C193.61,375.05 193.02,375.66 192.73,376.32C192.47,376.91 192.33,377.59 192.42,378.2C192.51,378.84 192.9,379.48 193.32,380.07Q193.79,380.74 195.19,381.95L204.79,381.95" style="vector-effect: none; stroke-width: 2px; stroke: rgb(255, 0, 0); stroke-opacity: 1; fill: rgb(255, 0, 0); fill-opacity: 1;"/><path class="meanline" d="M194.11788940429688,353.13H204.79" style="fill: none; vector-effect: none; stroke-width: 10px; stroke-dasharray: 20px, 10px; stroke: rgb(0, 0, 0); stroke-opacity: 1;"/><g class="points"/></g><g class="trace violins" style="opacity: 0.7;"><path class="violin" d="M204.79,382.5L218.49,382.5Q220.66,381.29 221.55,380.62C222.33,380.03 223.12,379.43 223.57,378.74C223.95,378.16 224.23,377.49 224.23,376.86C224.23,376.23 223.92,375.57 223.58,374.97C223.21,374.31 222.59,373.7 222.01,373.09C221.4,372.44 220.68,371.83 219.99,371.21C219.29,370.58 218.57,369.96 217.86,369.33C217.16,368.7 216.45,368.08 215.76,367.45C215.07,366.82 214.38,366.19 213.7,365.56C213.03,364.94 212.36,364.32 211.73,363.68C211.12,363.06 210.5,362.45 209.98,361.8C209.49,361.19 209,360.57 208.67,359.92C208.36,359.31 208.1,358.68 208.03,358.04C207.96,357.42 208.02,356.76 208.22,356.15C208.43,355.5 208.85,354.87 209.3,354.27C209.8,353.61 210.46,353 211.13,352.39C211.84,351.74 212.66,351.13 213.46,350.51C214.27,349.88 215.14,349.26 215.96,348.63C216.76,348.01 217.57,347.38 218.32,346.74C219.04,346.12 219.74,345.5 220.4,344.86C221.04,344.24 221.65,343.62 222.23,342.98C222.8,342.36 223.36,341.74 223.85,341.1C224.32,340.49 224.81,339.87 225.13,339.22C225.43,338.61 225.72,337.96 225.73,337.33C225.74,336.7 225.56,336.04 225.22,335.45C224.83,334.77 224.1,334.16 223.37,333.57Q222.52,332.89 220.35,331.69L204.79,331.69" style="vector-effect: none; stroke-width: 2px; stroke: rgb(0, 128, 0); stroke-opacity: 1; fill: rgb(0, 128, 0); fill-opacity: 1;"/><path class="meanline" d="M208.2953643798828,355.94H204.79" style="fill: none; vector-effect: none; stroke-width: 10px; stroke-dasharray: 20px, 10px; stroke: rgb(0, 0, 0); stroke-opacity: 1;"/><g class="points"/></g><g class="trace violins" style="opacity: 0.7;"><path class="violin" d="M288.57,331.46L272.94,331.46Q271.2,332.84 270.74,333.63C270.34,334.3 270.07,335.09 270.14,335.8C270.21,336.54 270.71,337.29 271.23,337.97C271.82,338.75 272.76,339.44 273.62,340.14C274.54,340.89 275.62,341.59 276.62,342.32C277.61,343.04 278.65,343.75 279.58,344.49C280.46,345.2 281.32,345.91 282.07,346.66C282.77,347.36 283.41,348.08 283.95,348.83C284.46,349.53 284.89,350.26 285.24,351C285.57,351.71 285.84,352.44 286.02,353.17C286.2,353.89 286.3,354.62 286.32,355.35C286.34,356.07 286.28,356.8 286.14,357.52C286,358.25 285.76,358.98 285.46,359.69C285.14,360.43 284.74,361.16 284.26,361.86C283.75,362.61 283.15,363.33 282.49,364.03C281.78,364.78 280.97,365.51 280.12,366.21C279.22,366.96 278.21,367.67 277.2,368.38C276.15,369.12 275.01,369.82 273.94,370.55C272.88,371.27 271.75,371.96 270.81,372.72C269.95,373.41 269.03,374.1 268.49,374.89C268.03,375.57 267.61,376.34 267.62,377.06C267.63,377.79 268.07,378.57 268.57,379.24C269.17,380.04 270.2,380.72 271.17,381.41Q272.26,382.18 274.82,383.58L288.57,383.58" style="vector-effect: none; stroke-width: 2px; stroke: rgb(255, 0, 0); stroke-opacity: 1; fill: rgb(255, 0, 0); fill-opacity: 1;"/><path class="meanline" d="M286.08154296875,357.8H288.57" style="fill: none; vector-effect: none; stroke-width: 10px; stroke-dasharray: 20px, 10px; stroke: rgb(0, 0, 0); stroke-opacity: 1;"/><g class="points"/></g><g class="trace violins" style="opacity: 0.7;"><path class="violin" d="M288.57,382.01L299.75,382.01Q301.69,380.78 302.45,380.1C303.11,379.5 303.82,378.88 304.12,378.19C304.38,377.59 304.46,376.89 304.3,376.28C304.12,375.61 303.52,374.96 302.94,374.36C302.27,373.67 301.31,373.07 300.42,372.45C299.47,371.79 298.38,371.18 297.39,370.54C296.41,369.91 295.39,369.29 294.5,368.63C293.67,368.01 292.86,367.38 292.19,366.71C291.59,366.1 291.04,365.47 290.63,364.8C290.26,364.19 289.96,363.54 289.8,362.89C289.64,362.27 289.58,361.61 289.64,360.98C289.7,360.34 289.88,359.69 290.16,359.07C290.46,358.4 290.92,357.76 291.45,357.15C292.05,356.47 292.81,355.84 293.63,355.24C294.54,354.56 295.62,353.95 296.71,353.33C297.88,352.67 299.18,352.06 300.43,351.42C301.69,350.78 303.03,350.16 304.22,349.5C305.32,348.88 306.46,348.29 307.32,347.59C308.05,347 308.78,346.37 309.14,345.68C309.45,345.08 309.56,344.4 309.51,343.77C309.46,343.12 309.1,342.48 308.84,341.85C308.57,341.2 308.15,340.59 307.9,339.94C307.66,339.31 307.43,338.67 307.36,338.03C307.29,337.4 307.38,336.75 307.47,336.12C307.56,335.48 307.83,334.85 307.93,334.21C308.03,333.57 308.18,332.92 308.09,332.29C307.99,331.64 307.73,330.98 307.33,330.38C306.87,329.69 306.14,329.07 305.39,328.47C304.54,327.79 303.49,327.18 302.47,326.56Q301.39,325.9 299.09,324.64L288.57,324.64" style="vector-effect: none; stroke-width: 2px; stroke: rgb(0, 128, 0); stroke-opacity: 1; fill: rgb(0, 128, 0); fill-opacity: 1;"/><path class="meanline" d="M303.8134765625,349.72H288.57" style="fill: none; vector-effect: none; stroke-width: 10px; stroke-dasharray: 20px, 10px; stroke: rgb(0, 0, 0); stroke-opacity: 1;"/><g class="points"/></g></g></g></g><g class="zerolinelayer-above"/><path class="xlines-above crisp" d="M841.1999999999999,520.5H1169M841.1999999999999,99.5H1169" style="fill: none; stroke-width: 1px; stroke: rgb(0, 0, 0); stroke-opacity: 1;"/><path class="ylines-above crisp" d="M841.6999999999999,100V520M1168.5,100V520" style="fill: none; stroke-width: 1px; stroke: rgb(0, 0, 0); stroke-opacity: 1;"/><g class="overlines-above"/><g class="xaxislayer-above"><path class="x3tick ticks crisp" d="M0,521v5" transform="translate(879.43,0)" style="stroke: rgb(68, 68, 68); stroke-opacity: 1; stroke-width: 1px;"/><path class="x3tick ticks crisp" d="M0,521v5" transform="translate(963.2099999999999,0)" style="stroke: rgb(68, 68, 68); stroke-opacity: 1; stroke-width: 1px;"/><path class="x3tick ticks crisp" d="M0,521v5" transform="translate(1046.99,0)" style="stroke: rgb(68, 68, 68); stroke-opacity: 1; stroke-width: 1px;"/><path class="x3tick ticks crisp" d="M0,521v5" transform="translate(1130.77,0)" style="stroke: rgb(68, 68, 68); stroke-opacity: 1; stroke-width: 1px;"/><g class="x3tick"><text text-anchor="middle" x="0" y="550" transform="translate(879.43,0)" style="font-family: 'Open Sans', verdana, arial, sans-serif; font-size: 20px; fill: rgb(42, 63, 95); fill-opacity: 1; white-space: pre;">Clinton</text></g><g class="x3tick"><text text-anchor="middle" x="0" y="550" transform="translate(963.2099999999999,0)" style="font-family: 'Open Sans', verdana, arial, sans-serif; font-size: 20px; fill: rgb(42, 63, 95); fill-opacity: 1; white-space: pre;">Yelp</text></g><g class="x3tick"><text text-anchor="middle" x="0" y="550" transform="translate(1046.99,0)" style="font-family: 'Open Sans', verdana, arial, sans-serif; font-size: 20px; fill: rgb(42, 63, 95); fill-opacity: 1; white-space: pre;">Enron</text></g><g class="x3tick"><text text-anchor="middle" x="0" y="550" transform="translate(1130.77,0)" style="font-family: 'Open Sans', verdana, arial, sans-serif; font-size: 20px; fill: rgb(42, 63, 95); fill-opacity: 1; white-space: pre;">Yahoo</text></g></g><g class="yaxislayer-above"><path class="y3tick ticks crisp" d="M841.1999999999999,0h-5" transform="translate(0,499.19)" style="stroke: rgb(68, 68, 68); stroke-opacity: 1; stroke-width: 1px;"/><path class="y3tick ticks crisp" d="M841.1999999999999,0h-5" transform="translate(0,422.71)" style="stroke: rgb(68, 68, 68); stroke-opacity: 1; stroke-width: 1px;"/><path class="y3tick ticks crisp" d="M841.1999999999999,0h-5" transform="translate(0,346.22)" style="stroke: rgb(68, 68, 68); stroke-opacity: 1; stroke-width: 1px;"/><path class="y3tick ticks crisp" d="M841.1999999999999,0h-5" transform="translate(0,269.73)" style="stroke: rgb(68, 68, 68); stroke-opacity: 1; stroke-width: 1px;"/><path class="y3tick ticks crisp" d="M841.1999999999999,0h-5" transform="translate(0,193.25)" style="stroke: rgb(68, 68, 68); stroke-opacity: 1; stroke-width: 1px;"/><path class="y3tick ticks crisp" d="M841.1999999999999,0h-5" transform="translate(0,116.76)" style="stroke: rgb(68, 68, 68); stroke-opacity: 1; stroke-width: 1px;"/></g><g class="overaxes-above"/></g></g><g class="polarlayer"/><g class="smithlayer"/><g class="ternarylayer"/><g class="geolayer"/><g class="funnelarealayer"/><g class="pielayer"/><g class="iciclelayer"/><g class="treemaplayer"/><g class="sunburstlayer"/><g class="glimages"/><defs id="topdefs-7b3f08"><g class="clips"/><clipPath id="legend7b3f08"><rect width="198" height="68" x="0" y="0"/></clipPath></defs><g class="layer-above"><g class="imagelayer"/><g class="shapelayer"/></g><g class="infolayer"><g class="legend" pointer-events="all" transform="translate(1189.72,100)"><rect class="bg" shape-rendering="crispEdges" style="stroke: rgb(68, 68, 68); stroke-opacity: 1; fill: rgb(255, 255, 255); fill-opacity: 1; stroke-width: 0px;" width="198" height="68" x="0" y="0"/><g class="scrollbox" transform="" clip-path="url(#legend7b3f08)"><g class="groups"><g class="traces" transform="translate(0,19.5)" style="opacity: 1;"><text class="legendtext" text-anchor="start" x="40" y="7.8" style="font-family: 'Open Sans', verdana, arial, sans-serif; font-size: 20px; fill: rgb(42, 63, 95); fill-opacity: 1; white-space: pre;">Predição Errada</text><g class="layers" style="opacity: 0.7;"><g class="legendfill"/><g class="legendlines"/><g class="legendsymbols"><g class="legendpoints"><path class="legendbox" d="M6,6H-6V-6H6Z" transform="translate(20,0)" style="stroke-width: 2px; fill: rgb(255, 0, 0); fill-opacity: 1; stroke: rgb(255, 0, 0); stroke-opacity: 1;"/></g></g></g><rect class="legendtoggle" x="0" y="-14.5" width="192.05859375" height="29" style="fill: rgb(0, 0, 0); fill-opacity: 0;"/></g><g class="traces" transform="translate(0,48.5)" style="opacity: 1;"><text class="legendtext" text-anchor="start" x="40" y="7.8" style="font-family: 'Open Sans', verdana, arial, sans-serif; font-size: 20px; fill: rgb(42, 63, 95); fill-opacity: 1; white-space: pre;">Predição Correta</text><g class="layers" style="opacity: 0.7;"><g class="legendfill"/><g class="legendlines"/><g class="legendsymbols"><g class="legendpoints"><path class="legendbox" d="M6,6H-6V-6H6Z" transform="translate(20,0)" style="stroke-width: 2px; fill: rgb(0, 128, 0); fill-opacity: 1; stroke: rgb(0, 128, 0); stroke-opacity: 1;"/></g></g></g><rect class="legendtoggle" x="0" y="-14.5" width="192.05859375" height="29" style="fill: rgb(0, 0, 0); fill-opacity: 0;"/></g></g></g><rect class="scrollbar" rx="20" ry="3" width="0" height="0" style="fill: rgb(128, 139, 164); fill-opacity: 1;" x="0" y="0"/></g><g class="g-gtitle"/><g class="g-xtitle"><text class="xtitle" x="244.9" y="585.3" text-anchor="middle" style="opacity: 1; font-family: 'Open Sans', verdana, arial, sans-serif; font-size: 24px; fill: rgb(42, 63, 95); fill-opacity: 1; white-space: pre;">Subconjuntos</text></g><g class="g-x2title"><text class="x2title" x="625" y="585.3" text-anchor="middle" style="opacity: 1; font-family: 'Open Sans', verdana, arial, sans-serif; font-size: 24px; fill: rgb(42, 63, 95); fill-opacity: 1; white-space: pre;">Subconjuntos</text></g><g class="g-x3title"><text class="x3title" x="1005.0999999999999" y="585.3" text-anchor="middle" style="opacity: 1; font-family: 'Open Sans', verdana, arial, sans-serif; font-size: 24px; fill: rgb(42, 63, 95); fill-opacity: 1; white-space: pre;">Subconjuntos</text></g><g class="g-ytitle" transform="translate(0.712890625,0)"><text class="ytitle" transform="rotate(-90,21.2875,310)" x="21.2875" y="310" text-anchor="middle" style="opacity: 1; font-family: 'Open Sans', verdana, arial, sans-serif; font-size: 24px; fill: rgb(42, 63, 95); fill-opacity: 1; white-space: pre;">Probabilidade</text></g><g class="g-y2title"/><g class="g-y3title"/><g class="annotation" data-index="0" style="opacity: 1;"><g class="annotation-text-g" transform="rotate(0,244.9,87)"><g class="cursor-pointer" transform="translate(213,74)"><rect class="bg" x="0.5" y="0.5" width="62" height="25" style="stroke-width: 1px; stroke: rgb(0, 0, 0); stroke-opacity: 0; fill: rgb(0, 0, 0); fill-opacity: 0;"/><text class="annotation-text" text-anchor="middle" x="31.28125" y="20" style="font-family: 'Open Sans', verdana, arial, sans-serif; font-size: 20px; fill: rgb(42, 63, 95); fill-opacity: 1; white-space: pre;">Vanilla</text></g></g></g><g class="annotation" data-index="1" style="opacity: 1;"><g class="annotation-text-g" transform="rotate(0,624.9999999999999,87)"><g class="cursor-pointer" transform="translate(587,74)"><rect class="bg" x="0.5" y="0.5" width="74" height="25" style="stroke-width: 1px; stroke: rgb(0, 0, 0); stroke-opacity: 0; fill: rgb(0, 0, 0); fill-opacity: 0;"/><text class="annotation-text" text-anchor="middle" x="37.5546875" y="20" style="font-family: 'Open Sans', verdana, arial, sans-serif; font-size: 20px; fill: rgb(42, 63, 95); fill-opacity: 1; white-space: pre;">RSTMix</text></g></g></g><g class="annotation" data-index="2" style="opacity: 1;"><g class="annotation-text-g" transform="rotate(0,1005.1,87)"><g class="cursor-pointer" transform="translate(967,74)"><rect class="bg" x="0.5" y="0.5" width="76" height="25" style="stroke-width: 1px; stroke: rgb(0, 0, 0); stroke-opacity: 0; fill: rgb(0, 0, 0); fill-opacity: 0;"/><text class="annotation-text" text-anchor="middle" x="38.671875" y="20" style="font-family: 'Open Sans', verdana, arial, sans-serif; font-size: 20px; fill: rgb(42, 63, 95); fill-opacity: 1; white-space: pre;">POSMix</text></g></g></g></g></svg>