<svg class="main-svg" xmlns="http://www.w3.org/2000/svg" xmlns:xlink="http://www.w3.org/1999/xlink" width="1800" height="600" style="" viewBox="0 0 1800 600"><rect x="0" y="0" width="1800" height="600" style="fill: rgb(255, 255, 255); fill-opacity: 1;"/><defs id="defs-7068f7"><g class="clips"><clipPath id="clip7068f7xyplot" class="plotclip"><rect width="1626" height="420"/></clipPath><clipPath class="axesclip" id="clip7068f7x"><rect x="94" y="0" width="1626" height="600"/></clipPath><clipPath class="axesclip" id="clip7068f7y"><rect x="0" y="100" width="1800" height="420"/></clipPath><clipPath class="axesclip" id="clip7068f7xy"><rect x="94" y="100" width="1626" height="420"/></clipPath></g><g class="gradients"/><g class="patterns"/></defs><g class="bglayer"/><g class="layer-below"><g class="imagelayer"/><g class="shapelayer"/></g><g class="cartesianlayer"><g class="subplot xy"><g class="layer-subplot"><g class="shapelayer"/><g class="imagelayer"/></g><g class="minor-gridlayer"><g class="x"/><g class="y"/></g><g class="gridlayer"><g class="x"/><g class="y"><path class="ygrid crisp" transform="translate(0,436.74)" d="M94,0h1626" style="stroke: rgb(235, 240, 248); stroke-opacity: 1; stroke-width: 1px;"/><path class="ygrid crisp" transform="translate(0,374.01)" d="M94,0h1626" style="stroke: rgb(235, 240, 248); stroke-opacity: 1; stroke-width: 1px;"/><path class="ygrid crisp" transform="translate(0,311.28)" d="M94,0h1626" style="stroke: rgb(235, 240, 248); stroke-opacity: 1; stroke-width: 1px;"/><path class="ygrid crisp" transform="translate(0,248.54)" d="M94,0h1626" style="stroke: rgb(235, 240, 248); stroke-opacity: 1; stroke-width: 1px;"/><path class="ygrid crisp" transform="translate(0,185.81)" d="M94,0h1626" style="stroke: rgb(235, 240, 248); stroke-opacity: 1; stroke-width: 1px;"/><path class="ygrid crisp" transform="translate(0,123.08)" d="M94,0h1626" style="stroke: rgb(235, 240, 248); stroke-opacity: 1; stroke-width: 1px;"/></g></g><g class="zerolinelayer"><path class="yzl zl crisp" transform="translate(0,499.47)" d="M94,0h1626" style="stroke: rgb(235, 240, 248); stroke-opacity: 1; stroke-width: 2px;"/></g><g class="layer-between"><g class="shapelayer"/><g class="imagelayer"/></g><path class="xlines-below"/><path class="ylines-below"/><g class="overlines-below"/><g class="xaxislayer-below"/><g class="yaxislayer-below"/><g class="overaxes-below"/><g class="overplot"><g class="xy" transform="translate(94,100)" clip-path="url(#clip7068f7xyplot)"><g class="barlayer mlayer"><g class="trace bars" shape-rendering="crispEdges" style="opacity: 0.7;"><g class="points"><g class="point"><path d="M135.5,399.47V397.51H162.6V399.47Z" style="vector-effect: none; opacity: 1; stroke-width: 0px; fill: rgb(72, 118, 255); fill-opacity: 1;"/></g><g class="point"><path d="M162.6,399.47V395.55H189.7V399.47Z" style="vector-effect: none; opacity: 1; stroke-width: 0px; fill: rgb(72, 118, 255); fill-opacity: 1;"/></g><g class="point"><path d="M189.7,399.47V389.67H216.8V399.47Z" style="vector-effect: none; opacity: 1; stroke-width: 0px; fill: rgb(72, 118, 255); fill-opacity: 1;"/></g><g class="point"><path d="M216.8,399.47V372.02H243.9V399.47Z" style="vector-effect: none; opacity: 1; stroke-width: 0px; fill: rgb(72, 118, 255); fill-opacity: 1;"/></g><g class="point"><path d="M243.9,399.47V348.49H271V399.47Z" style="vector-effect: none; opacity: 1; stroke-width: 0px; fill: rgb(72, 118, 255); fill-opacity: 1;"/></g><g class="point"><path d="M271,399.47V293.58H298.1V399.47Z" style="vector-effect: none; opacity: 1; stroke-width: 0px; fill: rgb(72, 118, 255); fill-opacity: 1;"/></g><g class="point"><path d="M298.1,399.47V226.9H325.2V399.47Z" style="vector-effect: none; opacity: 1; stroke-width: 0px; fill: rgb(72, 118, 255); fill-opacity: 1;"/></g><g class="point"><path d="M325.2,399.47V166.11H352.3V399.47Z" style="vector-effect: none; opacity: 1; stroke-width: 0px; fill: rgb(72, 118, 255); fill-opacity: 1;"/></g><g class="point"><path d="M352.3,399.47V144.54H379.4V399.47Z" style="vector-effect: none; opacity: 1; stroke-width: 0px; fill: rgb(72, 118, 255); fill-opacity: 1;"/></g><g class="point"><path d="M379.4,399.47V21H406.5V399.47Z" style="vector-effect: none; opacity: 1; stroke-width: 0px; fill: rgb(72, 118, 255); fill-opacity: 1;"/></g><g class="point"><path d="M406.5,399.47V28.84H433.6V399.47Z" style="vector-effect: none; opacity: 1; stroke-width: 0px; fill: rgb(72, 118, 255); fill-opacity: 1;"/></g><g class="point"><path d="M433.6,399.47V24.92H460.7V399.47Z" style="vector-effect: none; opacity: 1; stroke-width: 0px; fill: rgb(72, 118, 255); fill-opacity: 1;"/></g><g class="point"><path d="M460.7,399.47V21H487.8V399.47Z" style="vector-effect: none; opacity: 1; stroke-width: 0px; fill: rgb(72, 118, 255); fill-opacity: 1;"/></g><g class="point"><path d="M487.8,399.47V24.92H514.9V399.47Z" style="vector-effect: none; opacity: 1; stroke-width: 0px; fill: rgb(72, 118, 255); fill-opacity: 1;"/></g><g class="point"><path d="M514.9,399.47V50.41H542V399.47Z" style="vector-effect: none; opacity: 1; stroke-width: 0px; fill: rgb(72, 118, 255); fill-opacity: 1;"/></g><g class="point"><path d="M542,399.47V79.83H569.1V399.47Z" style="vector-effect: none; opacity: 1; stroke-width: 0px; fill: rgb(72, 118, 255); fill-opacity: 1;"/></g><g class="point"><path d="M569.1,399.47V121.01H596.2V399.47Z" style="vector-effect: none; opacity: 1; stroke-width: 0px; fill: rgb(72, 118, 255); fill-opacity: 1;"/></g><g class="point"><path d="M596.2,399.47V117.09H623.3V399.47Z" style="vector-effect: none; opacity: 1; stroke-width: 0px; fill: rgb(72, 118, 255); fill-opacity: 1;"/></g><g class="point"><path d="M623.3,399.47V175.92H650.4V399.47Z" style="vector-effect: none; opacity: 1; stroke-width: 0px; fill: rgb(72, 118, 255); fill-opacity: 1;"/></g><g class="point"><path d="M650.4,399.47V195.53H677.5V399.47Z" style="vector-effect: none; opacity: 1; stroke-width: 0px; fill: rgb(72, 118, 255); fill-opacity: 1;"/></g><g class="point"><path d="M677.5,399.47V168.07H704.6V399.47Z" style="vector-effect: none; opacity: 1; stroke-width: 0px; fill: rgb(72, 118, 255); fill-opacity: 1;"/></g><g class="point"><path d="M704.6,399.47V213.18H731.7V399.47Z" style="vector-effect: none; opacity: 1; stroke-width: 0px; fill: rgb(72, 118, 255); fill-opacity: 1;"/></g><g class="point"><path d="M731.7,399.47V246.51H758.8V399.47Z" style="vector-effect: none; opacity: 1; stroke-width: 0px; fill: rgb(72, 118, 255); fill-opacity: 1;"/></g><g class="point"><path d="M758.8,399.47V256.32H785.9V399.47Z" style="vector-effect: none; opacity: 1; stroke-width: 0px; fill: rgb(72, 118, 255); fill-opacity: 1;"/></g><g class="point"><path d="M785.9,399.47V275.93H813V399.47Z" style="vector-effect: none; opacity: 1; stroke-width: 0px; fill: rgb(72, 118, 255); fill-opacity: 1;"/></g><g class="point"><path d="M813,399.47V287.7H840.1V399.47Z" style="vector-effect: none; opacity: 1; stroke-width: 0px; fill: rgb(72, 118, 255); fill-opacity: 1;"/></g><g class="point"><path d="M840.1,399.47V295.54H867.2V399.47Z" style="vector-effect: none; opacity: 1; stroke-width: 0px; fill: rgb(72, 118, 255); fill-opacity: 1;"/></g><g class="point"><path d="M867.2,399.47V281.81H894.3V399.47Z" style="vector-effect: none; opacity: 1; stroke-width: 0px; fill: rgb(72, 118, 255); fill-opacity: 1;"/></g><g class="point"><path d="M894.3,399.47V328.88H921.4V399.47Z" style="vector-effect: none; opacity: 1; stroke-width: 0px; fill: rgb(72, 118, 255); fill-opacity: 1;"/></g><g class="point"><path d="M921.4,399.47V293.58H948.5V399.47Z" style="vector-effect: none; opacity: 1; stroke-width: 0px; fill: rgb(72, 118, 255); fill-opacity: 1;"/></g><g class="point"><path d="M948.5,399.47V324.95H975.6V399.47Z" style="vector-effect: none; opacity: 1; stroke-width: 0px; fill: rgb(72, 118, 255); fill-opacity: 1;"/></g><g class="point"><path d="M975.6,399.47V350.45H1002.7V399.47Z" style="vector-effect: none; opacity: 1; stroke-width: 0px; fill: rgb(72, 118, 255); fill-opacity: 1;"/></g><g class="point"><path d="M1002.7,399.47V346.53H1029.8V399.47Z" style="vector-effect: none; opacity: 1; stroke-width: 0px; fill: rgb(72, 118, 255); fill-opacity: 1;"/></g><g class="point"><path d="M1029.8,399.47V338.68H1056.9V399.47Z" style="vector-effect: none; opacity: 1; stroke-width: 0px; fill: rgb(72, 118, 255); fill-opacity: 1;"/></g><g class="point"><path d="M1056.9,399.47V356.33H1084V399.47Z" style="vector-effect: none; opacity: 1; stroke-width: 0px; fill: rgb(72, 118, 255); fill-opacity: 1;"/></g><g class="point"><path d="M1084,399.47V360.25H1111.1V399.47Z" style="vector-effect: none; opacity: 1; stroke-width: 0px; fill: rgb(72, 118, 255); fill-opacity: 1;"/></g><g class="point"><path d="M1111.1,399.47V356.33H1138.2V399.47Z" style="vector-effect: none; opacity: 1; stroke-width: 0px; fill: rgb(72, 118, 255); fill-opacity: 1;"/></g><g class="point"><path d="M1138.2,399.47V372.02H1165.3V399.47Z" style="vector-effect: none; opacity: 1; stroke-width: 0px; fill: rgb(72, 118, 255); fill-opacity: 1;"/></g><g class="point"><path d="M1165.3,399.47V377.9H1192.4V399.47Z" style="vector-effect: none; opacity: 1; stroke-width: 0px; fill: rgb(72, 118, 255); fill-opacity: 1;"/></g><g class="point"><path d="M1192.4,399.47V387.71H1219.5V399.47Z" style="vector-effect: none; opacity: 1; stroke-width: 0px; fill: rgb(72, 118, 255); fill-opacity: 1;"/></g><g class="point"><path d="M1219.5,399.47V385.75H1246.6V399.47Z" style="vector-effect: none; opacity: 1; stroke-width: 0px; fill: rgb(72, 118, 255); fill-opacity: 1;"/></g><g class="point"><path d="M1246.6,399.47V389.67H1273.7V399.47Z" style="vector-effect: none; opacity: 1; stroke-width: 0px; fill: rgb(72, 118, 255); fill-opacity: 1;"/></g><g class="point"><path d="M1273.7,399.47V381.82H1300.8V399.47Z" style="vector-effect: none; opacity: 1; stroke-width: 0px; fill: rgb(72, 118, 255); fill-opacity: 1;"/></g><g class="point"><path d="M1300.8,399.47V389.67H1327.9V399.47Z" style="vector-effect: none; opacity: 1; stroke-width: 0px; fill: rgb(72, 118, 255); fill-opacity: 1;"/></g><g class="point"><path d="M1327.9,399.47V373.98H1355V399.47Z" style="vector-effect: none; opacity: 1; stroke-width: 0px; fill: rgb(72, 118, 255); fill-opacity: 1;"/></g><g class="point"><path d="M1355,399.47V395.55H1382.1V399.47Z" style="vector-effect: none; opacity: 1; stroke-width: 0px; fill: rgb(72, 118, 255); fill-opacity: 1;"/></g><g class="point"><path d="M1382.1,399.47V389.67H1409.2V399.47Z" style="vector-effect: none; opacity: 1; stroke-width: 0px; fill: rgb(72, 118, 255); fill-opacity: 1;"/></g><g class="point"><path d="M1409.2,399.47V395.55H1436.3V399.47Z" style="vector-effect: none; opacity: 1; stroke-width: 0px; fill: rgb(72, 118, 255); fill-opacity: 1;"/></g><g class="point"><path d="M1436.3,399.47V389.67H1463.4V399.47Z" style="vector-effect: none; opacity: 1; stroke-width: 0px; fill: rgb(72, 118, 255); fill-opacity: 1;"/></g><g class="point"><path d="M1463.4,399.47V395.55H1490.5V399.47Z" style="vector-effect: none; opacity: 1; stroke-width: 0px; fill: rgb(72, 118, 255); fill-opacity: 1;"/></g></g></g></g><g class="scatterlayer mlayer"><g class="trace scatter tracebbd5d9" style="stroke-miterlimit: 2; opacity: 1;"><g class="fills"/><g class="errorbars"/><g class="lines"><path class="js-line" d="M135.5,394.72L153.06,391.24L155.99,390.49L170.62,385.75L173.55,384.59L185.26,379.07L188.18,377.45L199.89,369.92L202.82,367.75L214.52,357.83L217.45,355.03L229.16,342.45L232.08,338.96L243.79,323.62L246.72,319.45L261.35,296.72L264.28,291.83L281.84,260.49L284.77,254.99L311.11,203.39L314.03,197.54L346.23,134.41L349.16,128.97L363.79,103.26L366.72,98.47L378.42,80.77L381.35,76.74L393.06,62.38L395.99,59.25L404.77,50.97L407.69,48.59L416.47,42.51L419.4,40.85L428.18,36.85L431.11,35.84L439.89,33.73L442.81,33.32L451.59,32.89L454.52,33.01L466.23,34.71L469.16,35.42L480.86,39.41L483.79,40.67L495.5,46.72L498.42,48.47L513.06,58.48L515.98,60.72L533.54,75.34L536.47,77.94L565.74,105.32L568.67,108.11L603.79,140.71L606.71,143.27L627.2,160.15L630.13,162.41L653.54,179.19L656.47,181.18L700.37,211.6L703.3,213.76L753.05,250.3L755.98,252.24L773.54,263.01L776.47,264.65L794.03,273.53L796.96,274.85L817.44,283.08L820.37,284.12L846.71,292.52L849.64,293.39L911.1,311.92L914.03,312.9L955,327.79L957.93,328.85L984.27,337.53L987.2,338.36L1007.69,343.42L1010.61,344.04L1048.66,351.2L1051.59,351.73L1101.34,361.59L1104.27,362.23L1186.22,380.53L1189.15,381L1212.56,383.92L1215.49,384.17L1238.9,385.38L1241.83,385.45L1282.81,385.43L1285.73,385.42L1320.85,386.07L1323.78,386.2L1358.9,388.67L1361.83,388.92L1417.44,392.78L1420.37,392.95L1531.58,398.73L1534.51,398.78L1595.97,398.99" style="vector-effect: none; fill: none; stroke: rgb(72, 118, 255); stroke-opacity: 1; stroke-width: 2px; opacity: 1;"/></g><g class="points"/><g class="text"/></g></g></g></g><path class="xlines-above crisp" d="M0,0" style="fill: none;"/><path class="ylines-above crisp" d="M0,0" style="fill: none;"/><g class="overlines-above"/><g class="xaxislayer-above"><g class="xtick"><text text-anchor="middle" x="0" y="545" transform="translate(94,0)" style="font-family: 'Open Sans', verdana, arial, sans-serif; font-size: 24px; fill: rgb(42, 63, 95); fill-opacity: 1; white-space: pre; opacity: 1;">0</text></g><g class="xtick"><text text-anchor="middle" x="0" y="545" style="font-family: 'Open Sans', verdana, arial, sans-serif; font-size: 24px; fill: rgb(42, 63, 95); fill-opacity: 1; white-space: pre; opacity: 1;" transform="translate(229.5,0)">5</text></g><g class="xtick"><text text-anchor="middle" x="0" y="545" style="font-family: 'Open Sans', verdana, arial, sans-serif; font-size: 24px; fill: rgb(42, 63, 95); fill-opacity: 1; white-space: pre; opacity: 1;" transform="translate(365,0)">10</text></g><g class="xtick"><text text-anchor="middle" x="0" y="545" style="font-family: 'Open Sans', verdana, arial, sans-serif; font-size: 24px; fill: rgb(42, 63, 95); fill-opacity: 1; white-space: pre; opacity: 1;" transform="translate(500.5,0)">15</text></g><g class="xtick"><text text-anchor="middle" x="0" y="545" style="font-family: 'Open Sans', verdana, arial, sans-serif; font-size: 24px; fill: rgb(42, 63, 95); fill-opacity: 1; white-space: pre; opacity: 1;" transform="translate(636,0)">20</text></g><g class="xtick"><text text-anchor="middle" x="0" y="545" style="font-family: 'Open Sans', verdana, arial, sans-serif; font-size: 24px; fill: rgb(42, 63, 95); fill-opacity: 1; white-space: pre; opacity: 1;" transform="translate(771.5,0)">25</text></g><g class="xtick"><text text-anchor="middle" x="0" y="545" style="font-family: 'Open Sans', verdana, arial, sans-serif; font-size: 24px; fill: rgb(42, 63, 95); fill-opacity: 1; white-space: pre; opacity: 1;" transform="translate(907,0)">30</text></g><g class="xtick"><text text-anchor="middle" x="0" y="545" style="font-family: 'Open Sans', verdana, arial, sans-serif; font-size: 24px; fill: rgb(42, 63, 95); fill-opacity: 1; white-space: pre; opacity: 1;" transform="translate(1042.5,0)">35</text></g><g class="xtick"><text text-anchor="middle" x="0" y="545" style="font-family: 'Open Sans', verdana, arial, sans-serif; font-size: 24px; fill: rgb(42, 63, 95); fill-opacity: 1; white-space: pre; opacity: 1;" transform="translate(1178,0)">40</text></g><g class="xtick"><text text-anchor="middle" x="0" y="545" style="font-family: 'Open Sans', verdana, arial, sans-serif; font-size: 24px; fill: rgb(42, 63, 95); fill-opacity: 1; white-space: pre; opacity: 1;" transform="translate(1313.5,0)">45</text></g><g class="xtick"><text text-anchor="middle" x="0" y="545" style="font-family: 'Open Sans', verdana, arial, sans-serif; font-size: 24px; fill: rgb(42, 63, 95); fill-opacity: 1; white-space: pre; opacity: 1;" transform="translate(1449,0)">50</text></g><g class="xtick"><text text-anchor="middle" x="0" y="545" style="font-family: 'Open Sans', verdana, arial, sans-serif; font-size: 24px; fill: rgb(42, 63, 95); fill-opacity: 1; white-space: pre; opacity: 1;" transform="translate(1584.5,0)">55</text></g><g class="xtick"><text text-anchor="middle" x="0" y="545" style="font-family: 'Open Sans', verdana, arial, sans-serif; font-size: 24px; fill: rgb(42, 63, 95); fill-opacity: 1; white-space: pre; opacity: 1;" transform="translate(1720,0)">60</text></g></g><g class="yaxislayer-above"><g class="ytick"><text text-anchor="end" x="94" y="8.399999999999999" transform="translate(0,499.47)" style="font-family: 'Open Sans', verdana, arial, sans-serif; font-size: 24px; fill: rgb(42, 63, 95); fill-opacity: 1; white-space: pre; opacity: 1;">0</text></g><g class="ytick"><text text-anchor="end" x="94" y="8.399999999999999" style="font-family: 'Open Sans', verdana, arial, sans-serif; font-size: 24px; fill: rgb(42, 63, 95); fill-opacity: 1; white-space: pre; opacity: 1;" transform="translate(0,436.74)">0.01</text></g><g class="ytick"><text text-anchor="end" x="94" y="8.399999999999999" style="font-family: 'Open Sans', verdana, arial, sans-serif; font-size: 24px; fill: rgb(42, 63, 95); fill-opacity: 1; white-space: pre; opacity: 1;" transform="translate(0,374.01)">0.02</text></g><g class="ytick"><text text-anchor="end" x="94" y="8.399999999999999" style="font-family: 'Open Sans', verdana, arial, sans-serif; font-size: 24px; fill: rgb(42, 63, 95); fill-opacity: 1; white-space: pre; opacity: 1;" transform="translate(0,311.28)">0.03</text></g><g class="ytick"><text text-anchor="end" x="94" y="8.399999999999999" style="font-family: 'Open Sans', verdana, arial, sans-serif; font-size: 24px; fill: rgb(42, 63, 95); fill-opacity: 1; white-space: pre; opacity: 1;" transform="translate(0,248.54)">0.04</text></g><g class="ytick"><text text-anchor="end" x="94" y="8.399999999999999" style="font-family: 'Open Sans', verdana, arial, sans-serif; font-size: 24px; fill: rgb(42, 63, 95); fill-opacity: 1; white-space: pre; opacity: 1;" transform="translate(0,185.81)">0.05</text></g><g class="ytick"><text text-anchor="end" x="94" y="8.399999999999999" style="font-family: 'Open Sans', verdana, arial, sans-serif; font-size: 24px; fill: rgb(42, 63, 95); fill-opacity: 1; white-space: pre; opacity: 1;" transform="translate(0,123.08)">0.06</text></g></g><g class="overaxes-above"/></g></g><g class="polarlayer"/><g class="smithlayer"/><g class="ternarylayer"/><g class="geolayer"/><g class="funnelarealayer"/><g class="pielayer"/><g class="iciclelayer"/><g class="treemaplayer"/><g class="sunburstlayer"/><g class="glimages"/><defs id="topdefs-7068f7"><g class="clips"/></defs><g class="layer-above"><g class="imagelayer"/><g class="shapelayer"/></g><g class="infolayer"><g class="g-gtitle"/><g class="g-xtitle"><text class="xtitle" x="907" y="584.8" text-anchor="middle" style="opacity: 1; font-family: 'Open Sans', verdana, arial, sans-serif; font-size: 29px; fill: rgb(42, 63, 95); fill-opacity: 1; white-space: pre;">Quantidade de EDUs</text></g><g class="g-ytitle" transform="translate(4.369140625,0)"><text class="ytitle" transform="rotate(-90,21.631249999999994,310)" x="21.631249999999994" y="310" text-anchor="middle" style="opacity: 1; font-family: 'Open Sans', verdana, arial, sans-serif; font-size: 29px; fill: rgb(42, 63, 95); fill-opacity: 1; white-space: pre;">Densidade</text></g></g></svg>